<svg width="33" height="33" fill="none" xmlns="http://www.w3.org/2000/svg"><path d="M32.473 6.774L26.035.337c-.449-.45-1.247-.45-1.696 0l-7.086 7.086c-.45.449-1.247.449-1.697 0L8.471.337c-.45-.45-1.248-.45-1.697 0L.337 6.774c-.45.45-.45 1.247 0 1.697l7.086 7.085c.449.45.449 1.248 0 1.697L.337 24.339c-.45.449-.45 1.247 0 1.697l6.437 6.437c.45.449 1.247.449 1.697 0l7.085-7.086c.45-.45 1.248-.45 1.697 0l7.086 7.086c.449.449 1.247.449 1.697 0l6.437-6.438c.449-.449.449-1.247 0-1.696l-7.086-7.086c-.45-.45-.45-1.247 0-1.697l7.086-7.085c.499-.45.499-1.198 0-1.697z" fill="#00093C"/></svg>