<svg width="280" height="400" fill="none" xmlns="http://www.w3.org/2000/svg"><path fill="#E0E0E0" d="M0 0h280v400H0z"/><path d="M96.64 174.2h12.671v2.04H99.015v4.8h5.232c2 0 3.52.416 4.56 1.248 1.04.832 1.56 2.032 1.56 3.6 0 1.648-.568 2.912-1.704 3.792-1.12.88-2.728 1.32-4.824 1.32h-7.2v-16.8zm7.103 14.904c1.376 0 2.424-.264 3.144-.792.72-.528 1.08-1.304 1.08-2.328 0-2.032-1.408-3.048-4.224-3.048h-4.728v6.168h4.728zm14.603-10.944c1.76 0 3.104.432 4.032 1.296.944.864 1.416 2.152 1.416 3.864V191h-2.184v-1.68c-.384.592-.936 1.048-1.656 1.368-.704.304-1.544.456-2.52.456-1.424 0-2.568-.344-3.432-1.032-.848-.688-1.272-1.592-1.272-2.712s.408-2.016 1.224-2.688c.816-.688 2.112-1.032 3.888-1.032h3.648v-.456c0-.992-.288-1.752-.864-2.28-.576-.528-1.424-.792-2.544-.792-.752 0-1.488.128-2.208.384-.72.24-1.328.568-1.824.984l-.96-1.728c.656-.528 1.44-.928 2.352-1.2a9.588 9.588 0 012.904-.432zm-.528 11.208c.88 0 1.64-.192 2.28-.576.64-.4 1.104-.96 1.392-1.68v-1.776h-3.552c-1.952 0-2.928.656-2.928 1.968 0 .64.248 1.144.744 1.512.496.368 1.184.552 2.064.552zm10.125-11.088h2.304v5.4h7.248v-5.4h2.304V191h-2.304v-5.328h-7.248V191h-2.304v-12.72zm16.336 0h2.304v5.4h7.248v-5.4h2.304V191h-2.304v-5.328h-7.248V191h-2.304v-12.72zm27.832 6.432c0 .176-.016.408-.048.696h-10.32c.144 1.12.632 2.024 1.464 2.712.848.672 1.896 1.008 3.144 1.008 1.52 0 2.744-.512 3.672-1.536l1.272 1.488a5.554 5.554 0 01-2.16 1.536c-.848.352-1.8.528-2.856.528-1.344 0-2.536-.272-3.576-.816a6.067 6.067 0 01-2.424-2.328c-.56-.992-.84-2.112-.84-3.36 0-1.232.272-2.344.816-3.336a5.955 5.955 0 012.28-2.304c.976-.56 2.072-.84 3.288-.84 1.216 0 2.296.28 3.24.84a5.631 5.631 0 012.232 2.304c.544.992.816 2.128.816 3.408zm-6.288-4.608c-1.104 0-2.032.336-2.784 1.008-.736.672-1.168 1.552-1.296 2.64h8.16c-.128-1.072-.568-1.944-1.32-2.616-.736-.688-1.656-1.032-2.76-1.032zm16.606-1.944c1.232 0 2.336.272 3.312.816a5.787 5.787 0 012.28 2.28c.56.976.84 2.104.84 3.384 0 1.28-.28 2.416-.84 3.408a5.787 5.787 0 01-2.28 2.28c-.976.544-2.08.816-3.312.816a5.975 5.975 0 01-2.52-.528 5.243 5.243 0 01-1.92-1.536v6.576h-2.304V178.28h2.208v2.016a4.797 4.797 0 011.944-1.584c.784-.368 1.648-.552 2.592-.552zm-.192 10.968c.816 0 1.544-.184 2.184-.552a4.061 4.061 0 001.536-1.584c.384-.688.576-1.472.576-2.352 0-.88-.192-1.656-.576-2.328a3.858 3.858 0 00-1.536-1.584c-.64-.368-1.368-.552-2.184-.552-.8 0-1.528.192-2.184.576a4.111 4.111 0 00-1.536 1.56c-.368.672-.552 1.448-.552 2.328 0 .88.184 1.664.552 2.352.368.672.88 1.2 1.536 1.584a4.387 4.387 0 002.184.552zm-79.906 35.784V227H90.259v-1.632l6.84-6.6c.832-.8 1.392-1.488 1.68-2.064a4.029 4.029 0 00.432-1.776c0-.88-.312-1.56-.936-2.04-.608-.496-1.488-.744-2.64-.744-1.856 0-3.288.608-4.296 1.824l-1.632-1.416c.656-.8 1.512-1.424 2.568-1.872 1.072-.448 2.264-.672 3.576-.672 1.76 0 3.16.424 4.2 1.272 1.04.832 1.56 1.968 1.56 3.408 0 .896-.192 1.744-.576 2.544-.384.8-1.112 1.712-2.184 2.736l-5.136 4.944h8.616zm12.245-6.72c.96.368 1.696.896 2.208 1.584.512.688.768 1.512.768 2.472 0 1.008-.272 1.888-.816 2.64-.544.736-1.32 1.304-2.328 1.704-1.008.4-2.192.6-3.552.6-1.344 0-2.52-.2-3.528-.6-.992-.4-1.76-.968-2.304-1.704-.544-.752-.816-1.632-.816-2.64 0-.96.248-1.784.744-2.472.512-.688 1.248-1.216 2.208-1.584-.768-.368-1.352-.856-1.752-1.464-.4-.608-.6-1.328-.6-2.16 0-.928.248-1.736.744-2.424.512-.688 1.224-1.216 2.136-1.584.912-.368 1.968-.552 3.168-.552 1.216 0 2.28.184 3.192.552.928.368 1.64.896 2.136 1.584.512.688.768 1.496.768 2.424 0 .816-.208 1.536-.624 2.16-.4.608-.984 1.096-1.752 1.464zm-3.72-6.24c-1.136 0-2.032.248-2.688.744-.656.48-.984 1.136-.984 1.968 0 .832.32 1.488.96 1.968.656.48 1.56.72 2.712.72 1.168 0 2.08-.24 2.736-.72.672-.48 1.008-1.136 1.008-1.968 0-.832-.344-1.488-1.032-1.968-.672-.496-1.576-.744-2.712-.744zm0 13.296c1.328 0 2.376-.272 3.144-.816.768-.56 1.152-1.312 1.152-2.256 0-.928-.384-1.656-1.152-2.184-.768-.544-1.816-.816-3.144-.816s-2.368.272-3.12.816c-.752.528-1.128 1.256-1.128 2.184 0 .944.376 1.696 1.128 2.256.752.544 1.792.816 3.12.816zm15.758 1.944c-1.328 0-2.512-.336-3.552-1.008-1.024-.688-1.832-1.68-2.424-2.976-.592-1.296-.888-2.832-.888-4.608 0-1.776.296-3.312.888-4.608.592-1.296 1.4-2.28 2.424-2.952 1.04-.688 2.224-1.032 3.552-1.032 1.312 0 2.48.344 3.504 1.032 1.04.672 1.856 1.656 2.448 2.952.592 1.296.888 2.832.888 4.608 0 1.776-.296 3.312-.888 4.608-.592 1.296-1.408 2.288-2.448 2.976-1.024.672-2.192 1.008-3.504 1.008zm0-2.136c1.344 0 2.416-.552 3.216-1.656.816-1.104 1.224-2.704 1.224-4.8 0-2.096-.408-3.696-1.224-4.8-.8-1.104-1.872-1.656-3.216-1.656-1.36 0-2.448.552-3.264 1.656-.8 1.104-1.2 2.704-1.2 4.8 0 2.096.4 3.696 1.2 4.8.816 1.104 1.904 1.656 3.264 1.656zM144.547 227l-3.672-4.872-3.72 4.872h-2.568l5.016-6.504-4.776-6.216h2.568l3.504 4.584 3.48-4.584h2.52l-4.8 6.216 5.064 6.504h-2.616zm17.78-4.128h-3.192V227h-2.328v-4.128h-9.336v-1.68l8.592-10.992h2.592l-8.232 10.608h6.456v-3.648h2.256v3.648h3.192v2.064zm8.302 4.32c-1.328 0-2.512-.336-3.552-1.008-1.024-.688-1.832-1.68-2.424-2.976-.592-1.296-.888-2.832-.888-4.608 0-1.776.296-3.312.888-4.608.592-1.296 1.4-2.28 2.424-2.952 1.04-.688 2.224-1.032 3.552-1.032 1.312 0 2.48.344 3.504 1.032 1.04.672 1.856 1.656 2.448 2.952.592 1.296.888 2.832.888 4.608 0 1.776-.296 3.312-.888 4.608-.592 1.296-1.408 2.288-2.448 2.976-1.024.672-2.192 1.008-3.504 1.008zm0-2.136c1.344 0 2.416-.552 3.216-1.656.816-1.104 1.224-2.704 1.224-4.8 0-2.096-.408-3.696-1.224-4.8-.8-1.104-1.872-1.656-3.216-1.656-1.36 0-2.448.552-3.264 1.656-.8 1.104-1.2 2.704-1.2 4.8 0 2.096.4 3.696 1.2 4.8.816 1.104 1.904 1.656 3.264 1.656zm16.008 2.136c-1.328 0-2.512-.336-3.552-1.008-1.024-.688-1.832-1.68-2.424-2.976-.592-1.296-.888-2.832-.888-4.608 0-1.776.296-3.312.888-4.608.592-1.296 1.4-2.28 2.424-2.952 1.04-.688 2.224-1.032 3.552-1.032 1.312 0 2.48.344 3.504 1.032 1.04.672 1.856 1.656 2.448 2.952.592 1.296.888 2.832.888 4.608 0 1.776-.296 3.312-.888 4.608-.592 1.296-1.408 2.288-2.448 2.976-1.024.672-2.192 1.008-3.504 1.008zm0-2.136c1.344 0 2.416-.552 3.216-1.656.816-1.104 1.224-2.704 1.224-4.8 0-2.096-.408-3.696-1.224-4.8-.8-1.104-1.872-1.656-3.216-1.656-1.36 0-2.448.552-3.264 1.656-.8 1.104-1.2 2.704-1.2 4.8 0 2.096.4 3.696 1.2 4.8.816 1.104 1.904 1.656 3.264 1.656z" fill="#fff"/></svg>