<svg width="23" height="49" fill="none" xmlns="http://www.w3.org/2000/svg"><path d="M1.982 45.854c0-.9.1-1.9 0-2.8 0-.8.2-1.1 1.1-1.1h16.1c.8 0 1.1.3 1.1 1.1-.1.9 0 1.9 0 2.8 0 .6-.2.8-.8.8h-16.6c-.7 0-.9-.2-.9-.8zm12.6-24c1 0 1.2.3 1.2 1.2-.1 4.1.2 8.1 1.5 12 .5 1.4 1.2 2.8 1.8 4.2.1.2.1.4.2.7h-16.1c0-.2 0-.4.1-.6 2.6-4.8 3.3-10 3.3-15.4 0-2.2-.2-2.1 1.4-2.1h6.6zm-10.3-3.2c-.1-.8.5-1.2 1.6-1.2h10.4c1.1 0 1.6.4 1.6 1.2-.1 1-.8 1.2-1.6 1.2h-10.2c-1 0-1.7-.2-1.8-1.2zm1.8-4.2c-.7-3.5 1.5-8.2 4.7-9.9.2-.1.6 0 .8.1 3.1 2.4 5 5.3 4.6 9.4-.1 1.3-.2 1.4-1.5 1.4h-7.6c-.6 0-.9-.4-1-1zm3-12.5c.2 1-.2 1.4-.8 1.9-3.2 2.9-4.9 6.4-4.2 10.8.1.7 0 1-.5 1.4-1.6 1.3-1.7 3.8-.1 5 .9.6 1.1 1.3 1 2.3v1.4c0 4.4-.4 8.8-2.6 12.6-1.6 2.8-2.1 5.6-1.8 8.7v1.4c0 1.1.3 1.4 1.4 1.4h19.2c1.1 0 1.4-.3 1.4-1.4 0-1.3-.1-2.7 0-4 .1-1.7-.3-3.1-1.2-4.6-3-5.1-3.4-10.8-3.2-16.5 0-.2.2-.5.4-.6 2.3-1.7 2.4-3.8.3-5.6-.2-.2-.4-.6-.3-.8.8-4.5-.9-8.1-4.2-11.1-.6-.5-1-.9-.8-1.9.3-1.2-.7-2.3-2-2.3-1.3-.3-2.3.7-2 1.9z" fill="url(#paint0_linear_80_8692)"/><defs><linearGradient id="paint0_linear_80_8692" x1="0" y1="24.427" x2="22.098" y2="24.427" gradientUnits="userSpaceOnUse"><stop stop-color="#F7941D"/><stop offset="1" stop-color="#27AAE1"/></linearGradient></defs></svg>