<svg width="27" height="43" fill="none" xmlns="http://www.w3.org/2000/svg"><path d="M12.3 14.8s-.2.4-.2 1.1c0 .7.2 1.7 1.2 2.8 1 1.2 2.5 1.5 3.7 1.5 1.1 0 1.9-.2 1.9-.2l.4-.1 4.3 7.2-3.5 5.5h2.5s3.3.7 3.3 4h-.1.1-.1.1V42H1v-5.1s.1-4.3 3.8-4.3v.4-.4.4-.4h2.1V29h.5l-.2.5c-.1 0-6.8-2.6-6.8-14.2C.5 3.5 13.3.3 17 .3v.4-.4.4-.4h.5l.1 4.5 7.6 9v.1s.5.9.5 1.9c0 .7-.3 1.6-1.3 2-.4.2-.9.2-1.3.2-1.6 0-3-1.1-3.9-2.5l.4-.3.3.4s-1.8 1.7-4.2 1.7c-.3 0-.7 0-1.1-.1-2.1-.5-3.8-2.4-3.8-5.1 0-1 .2-2.2.8-3.4l.9.4c-.5 1.1-.7 2.1-.7 3 0 2.3 1.4 3.8 3 4.2.3.1.6.1.9.1 1.9 0 3.5-1.4 3.5-1.4l.4-.4.3.5c.8 1.2 1.9 2 3.1 2 .3 0 .6-.1.9-.2.6-.2.7-.5.7-1 0-.7-.4-1.4-.4-1.4l.4-.2-.4.3-7.8-9.2-.1-4.4h.5v.5c-3.4 0-15.6 3.1-15.6 14 0 11.1 6.2 13.2 6.2 13.2l.3.1v5H4.6v-.5.5c-2.7-.1-2.8 3.4-2.8 3.4h-.5.5v4.1h23.4v.5h-.5v-4.9h.5-.5c0-2.5-2.5-3-2.5-3l.1-.5v.5h-4.2l4.1-6.5-3.8-6.4.4-.3.1.5s-.9.3-2.1.3c-1.4 0-3.2-.3-4.5-1.9-1.1-1.3-1.4-2.6-1.4-3.5 0-1 .3-1.6.4-1.6l1 .3z" fill="url(#paint0_linear_80_8694)"/><path d="M25.9 42.5H1c-.1 0-.2 0-.3-.1-.1-.1-.1-.2-.1-.3V37c0-1.3.8-4.6 4.2-4.7h1.7v-2.7C4.7 28.7 0 25.2 0 15.4.1 3.7 12.5 0 17 0h.5c.1 0 .2 0 .3.1.1.1.1.2.1.3l.1 4.4 7.5 8.9.1.1c.3.7.5 1.4.5 2.1 0 .9-.5 2-1.6 2.3-.5.2-.9.2-1.4.2-1.3 0-2.6-.7-3.7-1.9-.8.6-2.1 1.2-3.7 1.2-.4 0-.8 0-1.2-.1-.7-.2-1.4-.5-2-.9.2.6.5 1.2 1 1.9.8.9 1.9 1.4 3.4 1.4.6 0 1.1-.1 1.7-.2l.4-.1c.2 0 .3 0 .4.2l4.3 7.2c.1.1.1.3 0 .4l-3.1 4.9h1.9c.4 0 3.6 1 3.6 4.4v5.4c.1.1 0 .3-.2.3zm-24.6-.8h23.2v-.2H1.9c-.1 0-.2 0-.3-.1-.1-.1-.1-.2-.1-.3v-3.7h-.2v4.3zm23.9-1h.2V37h-.2v3.7zm-22.9 0h22.2v-4c0-1.8-1.6-2.5-2.2-2.6h-4.1c-.1 0-.3-.1-.3-.2-.1-.1-.1-.3 0-.4l4-6.3-3.4-5.6c-.4.1-.9.1-1.6.1-1.4 0-3.4-.4-4.8-2-1.2-1.5-1.5-2.9-1.5-3.7 0-.6.1-1 .2-1.3-.3-.8-.5-1.6-.5-2.5 0-1.1.3-2.3.8-3.5.1-.2.3-.3.5-.2l.9.4c.1 0 .2.1.2.2v.3c-.4 1-.6 2-.6 2.9 0 2.3 1.4 3.5 2.7 3.8.3.1.5.1.8.1 1 0 2.1-.4 3.2-1.3l.4-.4c.1-.1.2-.1.3-.1.1 0 .2.1.3.2l.3.5c.8 1.2 1.8 1.9 2.8 1.9.3 0 .5 0 .8-.1.4-.1.4-.3.4-.7 0-.3-.1-.7-.3-1.2l-7.7-9.1c-.1-.1-.1-.1-.1-.2V2.2c-4.5.5-14.4 4-14.4 13.6 0 9.4 4.5 12.2 5.9 12.9h.1l.3.1c.1.1.2.2.2.4v5c0 .2-.2.4-.4.4H4.6c-2.1 0-2.4 2.5-2.4 3l.1 3.1zM4.4 33c-2.5.3-3 2.7-3.1 3.6h.3c.1-.9.6-3.2 2.8-3.3V33zm20.8 3.3h.2c-.2-2.1-1.9-2.9-2.6-3.2v.2c1.2.5 2.3 1.5 2.4 3zm-6.3-3H22v-.2h-2c-.1 0-.3-.1-.3-.2-.1-.1-.1-.3 0-.4l3.3-5.3-3.6-6v.1c0 .1-.1.1-.1.1l3.4 5.6c.1.1.1.3 0 .4l-3.8 5.9zm-13.7 0h2.3v-3.5c-.1.1-.2.1-.3.1v2.8c0 .2-.2.4-.4.4H5.1v.1l.1.1zM16.2.8C12.3 1.2.9 4.3.8 15.4c0 9.1 4.1 12.5 5.8 13.5.1-.1.2-.1.3-.1-1.8-1-5.9-4.3-5.9-13.3C1 5.4 11.5 1.6 16.1 1.2l.1-.4c-.1 0-.1 0 0 0zm-4.7 14.7v.4c0 .7.2 1.9 1.3 3.2 1.2 1.5 2.9 1.8 4.2 1.8.5 0 .9 0 1.2-.1 0-.1 0-.2.1-.3-.4.1-.9.1-1.3.1-1.7 0-3.1-.6-4-1.7-.8-1-1.3-2.1-1.3-3.1v-.1c-.1 0-.1-.1-.2-.2zm8.4.5c.7.8 1.7 1.6 3.1 1.6.4 0 .8-.1 1.2-.2.8-.3 1.1-1 1.1-1.6 0-.4-.1-.9-.3-1.4l-.2.2c.1.3.3.8.2 1.2 0 .5-.1 1.1-.9 1.4-.4.1-.8.2-1.1.2-1 0-2-.5-2.9-1.5l-.1.1c0-.1 0 0-.1 0zm-7.4-.4c.6.7 1.4 1.1 2.2 1.2.3.1.7.1 1 .1 1.3 0 2.5-.6 3.2-1.1l-.1-.1v-.1c-1 .7-2.1 1-3.1 1-.3 0-.6 0-.9-.1-.8-.2-1.6-.6-2.2-1.3-.1.1-.1.2-.1.4zm-1-1.7c.1 0 .1 0 .2.1l.1.1c-.2-.6-.4-1.2-.4-2 0-.9.2-1.8.6-2.8l-.2-.1c-.4 1-.6 2-.6 2.9 0 .6.1 1.3.3 1.8zM17 5.1l7.4 8.8.2-.1-7.3-8.7c-.1-.1-.1-.1-.1-.2V1.7h-.3l.1 3.4z" fill="url(#paint1_linear_80_8694)"/><defs><linearGradient id="paint0_linear_80_8694" x1=".4" y1="21.151" x2="25.9" y2="21.151" gradientUnits="userSpaceOnUse"><stop stop-color="#F7941D"/><stop offset="1" stop-color="#27AAE1"/></linearGradient><linearGradient id="paint1_linear_80_8694" x1="0" y1="21.25" x2="26.139" y2="21.25" gradientUnits="userSpaceOnUse"><stop stop-color="#F7941D"/><stop offset="1" stop-color="#27AAE1"/></linearGradient></defs></svg>