<svg width="21" height="46" fill="none" xmlns="http://www.w3.org/2000/svg"><path d="M2.3 43.2c0-.8.1-1.5 0-2.3-.1-.8.2-1.1 1.1-1.1h14.9c.6 0 .8.2.8.8v2.6c0 .7-.2 1-.9 1H3.3c-.8 0-1-.3-1-1zm1.1-6.3c2.1-4.6 3.2-9.5 3.1-14.6 0-.8.2-1.1 1.1-1.1 2.2.1 4.4 0 6.6 0 .6 0 .9.2.9.8-.1 5.3 1 10.4 3.2 15.2.1.2.1.4.2.7H3c.1-.4.2-.7.4-1zm12.2-19.7c.8 0 1.4.3 1.3 1.1 0 .8-.6 1.1-1.3 1.1H5.9c-.8 0-1.4-.3-1.4-1.1 0-.9.6-1.1 1.4-1.1h9.7zM8.8 9.7l1.9-3.8c.7 1.4 1.3 2.7 2 3.9.6 1.2.8 1.3 2 .9 1-.3 2.1-.7 3.1-1l.2.2c-.8 1.7-1.7 3.4-2.6 5-.1.2-.5.4-.8.4H6.8c-.3 0-.6-.1-.7-.3-.9-1.7-1.7-3.4-2.7-5.4 1.3.4 2.3.8 3.3 1.1.5.2.8.3 1.1.3.3-.1.5-.4 1-1.3zm.9-8.6c-.8.4-1.3 1.5-.8 2.2.7 1 .1 1.7-.3 2.5s-.8 1.5-1.2 2.3c-.2.5-.5.6-1 .4C4.9 8 3.5 7.5 2 7.1 1.6 7 .9 7 .7 7.3c-.2.3-.2 1 0 1.4.9 2 1.9 3.9 2.9 5.9.2.3.3.6.4.9-2.2 1.9-2.1 3.7.1 5.4.2.1.4.5.4.7-.1 2-.1 4-.3 6-.4 3.6-1.7 6.9-3.3 10.1-.2.5-.4 1-.4 1.5v5.6c0 .9.4 1.2 1.2 1.2h18c.9 0 1.2-.4 1.2-1.2v-4.9c0-.8-.2-1.6-.5-2.3-2.4-4.9-3.7-10-3.5-15.5 0-.6.1-1 .7-1.4.5-.3.9-.9 1.1-1.4.5-1.5 0-2.8-1.4-3.7 1.2-2.4 2.3-4.6 3.4-6.9.2-.4.1-1-.1-1.3-.2-.2-.8-.3-1.2-.2-1.4.4-2.8.9-4.1 1.4-.7.3-1.2.2-1.5-.6-.4-1-.9-1.9-1.4-2.9-.3-.5-.3-.9 0-1.4.5-.8.3-1.8-.4-2.4-.4-.3-.8-.5-1.3-.5-.3 0-.7.1-1 .3z" fill="url(#paint0_linear_80_8686)"/><defs><linearGradient id="paint0_linear_80_8686" x1=".5" y1="23.401" x2="20.9" y2="23.401" gradientUnits="userSpaceOnUse"><stop stop-color="#F7941D"/><stop offset="1" stop-color="#27AAE1"/></linearGradient></defs></svg>