<svg width="26" height="41" fill="none" xmlns="http://www.w3.org/2000/svg"><path d="M1.6 37.215h22.2v1.9H1.6v-1.9zm1.7-2.8c0-.7.1-1.1 1-1.1h16.8c.9 0 1 .4 1 1.1 0 .7-.2 1-1 1H4.3c-.7 0-1-.2-1-1zm12.4-19.5c.7 0 .9.3.9.9 0 3.6.1 7.2 1.1 10.6.4 1.5 1 2.9 1.5 4.4.1.2.2.5.3.8H6c.1-.3.2-.5.3-.7 1.5-3.2 2.2-6.5 2.4-10 .1-1.7.2-3.5.2-5.2 0-.6.2-.8.8-.8h6zm-10.5-2.6c0-.6-.1-1.2.9-1.2h13.2c.8 0 .9.3.9 1 0 .6.1 1.1-.9 1.1-2.2-.1-4.5 0-6.7 0H6c-.6 0-.8-.2-.8-.9zm-1.9-3.8c0-1.9.1-3.8 0-5.7 0-.9.5-.9 1.1-.9.6 0 1.1.1 1 .9-.1.6 0 1.3 0 1.9 0 .6.3.9.9.9h3.6c.6 0 .9-.3.9-.9v-2.1c0-.5.2-.7.7-.7h2.6c.5 0 .6.2.6.7v2.1c0 .6.3.9.9.9h3.6c.6 0 .9-.3.9-.9v-2c-.1-.8.5-.8 1-.8h.2c.5 0 .9 0 .9.8v6c0 .6-.2.8-.8.8H4.2c-.7 0-.9-.3-.9-1zm15-7.1v2.4h-2v-2.5c0-.8-.3-1.1-1.1-1.1h-5c-.8 0-1.1.3-1.1 1.1v2.5h-2v-2.6c0-.7-.3-1.1-1.1-1.1H3c-1.1 0-1.3.3-1.3 1.3v8.2c0 1.1.1 1.3 1.2 1.3.5 0 .7.2.7.8v1.9c0 .8.4 1.1 1.1 1.1h2.4c0 2.1.1 4 0 6-.2 3.4-.9 6.7-2.5 9.7-.4.7-.8 1.1-1.6 1-.9-.1-1.2.3-1.2 1.2v1.7c0 .6-.1.9-.8.8-.7-.1-1 .3-1 1v3.2c0 .8.3 1.1 1.1 1.1h23.4c1.1 0 1.3-.2 1.3-1.3v-2.9c0-.8-.2-1.3-1.1-1.2-.5 0-.7-.2-.7-.7v-2c0-.7-.4-1.1-1-1-1.2.2-1.6-.5-2-1.4-.3-.6-.6-1.3-.8-1.9-1.3-3.4-1.6-7-1.7-10.6v-2.9h2.6c.7 0 1.1-.3 1.1-1.1v-1.8c0-.6.2-.9.8-.8.7.1 1.1-.3 1.1-1v-8.8c0-.7-.3-1.1-1.1-1h-3.3c-1.1.2-1.4.7-1.4 1.4z" fill="url(#paint0_linear_80_8681)"/><defs><linearGradient id="paint0_linear_80_8681" x1="0" y1="20.208" x2="25.8" y2="20.208" gradientUnits="userSpaceOnUse"><stop stop-color="#F7941D"/><stop offset="1" stop-color="#27AAE1"/></linearGradient></defs></svg>