<svg width="27" height="43" fill="none" xmlns="http://www.w3.org/2000/svg"><rect x="1" y="1.406" width="24.041" height="40" rx="3" stroke="#00093C" stroke-width="2"/><path d="M12.034 37.41h2m1.007-7.94h5.989m-2.995-2.993v5.988" stroke="#00093C" stroke-width="2" stroke-linecap="round"/><mask id="a" fill="#fff"><rect x="4.047" y="5.387" width="7.902" height="7.902" rx="1"/></mask><rect x="4.047" y="5.387" width="7.902" height="7.902" rx="1" stroke="#00093C" stroke-width="4" mask="url(#a)"/><mask id="b" fill="#fff"><rect x="14.034" y="5.387" width="8.004" height="8.004" rx="1"/></mask><rect x="14.034" y="5.387" width="8.004" height="8.004" rx="1" stroke="#00093C" stroke-width="4" mask="url(#b)"/><mask id="c" fill="#fff"><rect x="4.047" y="15.453" width="7.902" height="7.902" rx="1"/></mask><rect x="4.047" y="15.453" width="7.902" height="7.902" rx="1" stroke="#00093C" stroke-width="4" mask="url(#c)"/><mask id="d" fill="#fff"><rect x="14.034" y="15.453" width="8.004" height="8.004" rx="1"/></mask><rect x="14.034" y="15.453" width="8.004" height="8.004" rx="1" stroke="#00093C" stroke-width="4" mask="url(#d)"/><mask id="e" fill="#fff"><rect x="4.047" y="25.52" width="7.902" height="7.902" rx="1"/></mask><rect x="4.047" y="25.52" width="7.902" height="7.902" rx="1" stroke="#00093C" stroke-width="4" mask="url(#e)"/></svg>