<svg width="969" height="21" fill="none" xmlns="http://www.w3.org/2000/svg"><circle cx="20.054" cy=".998" r="1" fill="#27AAE1"/><circle cx="42.054" cy=".998" r="1" fill="#27AAE1"/><circle cx="64.054" cy=".998" r="1" fill="#27AAE1"/><circle cx="86.054" cy=".998" r="1" fill="#27AAE1"/><circle cx="108.054" cy=".998" r="1" fill="#27AAE1"/><circle cx="130.054" cy=".998" r="1" fill="#27AAE1"/><circle cx="152.054" cy=".998" r="1" fill="#27AAE1"/><circle cx="174.054" cy=".998" r="1" fill="#27AAE1"/><circle cx="196.054" cy=".998" r="1" fill="#27AAE1"/><circle cx="218.054" cy=".998" r="1" fill="#27AAE1"/><circle cx="240.054" cy=".998" r="1" fill="#27AAE1"/><circle cx="262.054" cy=".998" r="1" fill="#27AAE1"/><circle cx="284.054" cy=".998" r="1" fill="#27AAE1"/><circle cx="306.054" cy=".998" r="1" fill="#27AAE1"/><circle cx="328.054" cy=".998" r="1" fill="#27AAE1"/><circle cx="350.054" cy=".998" r="1" fill="#27AAE1"/><circle cx="372.054" cy=".998" r="1" fill="#27AAE1"/><circle cx="394.054" cy=".998" r="1" fill="#27AAE1"/><circle cx="416.054" cy=".998" r="1" fill="#27AAE1"/><circle cx="438.054" cy=".998" r="1" fill="#27AAE1"/><circle cx="460.054" cy=".998" r="1" fill="#27AAE1"/><circle cx="482.054" cy=".998" r="1" fill="#27AAE1"/><circle cx="504.054" cy=".998" r="1" fill="#27AAE1"/><circle cx="526.054" cy=".998" r="1" fill="#27AAE1"/><circle cx="548.054" cy=".998" r="1" fill="#27AAE1"/><circle cx="570.054" cy=".998" r="1" fill="#27AAE1"/><circle cx="592.054" cy=".998" r="1" fill="#27AAE1"/><circle cx="614.054" cy=".998" r="1" fill="#27AAE1"/><circle cx="636.054" cy=".998" r="1" fill="#27AAE1"/><circle cx="658.054" cy=".998" r="1" fill="#27AAE1"/><circle cx="680.054" cy=".998" r="1" fill="#27AAE1"/><circle cx="702.054" cy=".998" r="1" fill="#27AAE1"/><circle cx="724.054" cy=".998" r="1" fill="#27AAE1"/><circle cx="746.054" cy=".998" r="1" fill="#27AAE1"/><circle cx="768.054" cy=".998" r="1" fill="#27AAE1"/><circle cx="790.054" cy=".998" r="1" fill="#27AAE1"/><circle cx="812.054" cy=".998" r="1" fill="#27AAE1"/><circle cx="834.054" cy=".998" r="1" fill="#27AAE1"/><circle cx="856.054" cy=".998" r="1" fill="#27AAE1"/><circle cx="878.054" cy=".998" r="1" fill="#27AAE1"/><circle cx="900.054" cy=".998" r="1" fill="#27AAE1"/><circle cx="922.054" cy=".998" r="1" fill="#27AAE1"/><circle cx="944.054" cy=".998" r="1" fill="#27AAE1"/><circle cx="966.054" cy=".998" r="1" fill="#27AAE1"/></svg>