<svg width="1012" height="22" fill="none" xmlns="http://www.w3.org/2000/svg"><circle cx="21" cy="1" r="1" fill="#27AAE1"/><circle cx="43" cy="1" r="1" fill="#27AAE1"/><circle cx="65" cy="1" r="1" fill="#27AAE1"/><circle cx="87" cy="1" r="1" fill="#27AAE1"/><circle cx="109" cy="1" r="1" fill="#27AAE1"/><circle cx="131" cy="1" r="1" fill="#27AAE1"/><circle cx="153" cy="1" r="1" fill="#27AAE1"/><circle cx="175" cy="1" r="1" fill="#27AAE1"/><circle cx="197" cy="1" r="1" fill="#27AAE1"/><circle cx="219" cy="1" r="1" fill="#27AAE1"/><circle cx="241" cy="1" r="1" fill="#27AAE1"/><circle cx="263" cy="1" r="1" fill="#27AAE1"/><circle cx="285" cy="1" r="1" fill="#27AAE1"/><circle cx="307" cy="1" r="1" fill="#27AAE1"/><circle cx="329" cy="1" r="1" fill="#27AAE1"/><circle cx="351" cy="1" r="1" fill="#27AAE1"/><circle cx="373" cy="1" r="1" fill="#27AAE1"/><circle cx="395" cy="1" r="1" fill="#27AAE1"/><circle cx="417" cy="1" r="1" fill="#27AAE1"/><circle cx="439" cy="1" r="1" fill="#27AAE1"/><circle cx="461" cy="1" r="1" fill="#27AAE1"/><circle cx="483" cy="1" r="1" fill="#27AAE1"/><circle cx="505" cy="1" r="1" fill="#27AAE1"/><circle cx="527" cy="1" r="1" fill="#27AAE1"/><circle cx="549" cy="1" r="1" fill="#27AAE1"/><circle cx="571" cy="1" r="1" fill="#27AAE1"/><circle cx="593" cy="1" r="1" fill="#27AAE1"/><circle cx="615" cy="1" r="1" fill="#27AAE1"/><circle cx="637" cy="1" r="1" fill="#27AAE1"/><circle cx="659" cy="1" r="1" fill="#27AAE1"/><circle cx="681" cy="1" r="1" fill="#27AAE1"/><circle cx="703" cy="1" r="1" fill="#27AAE1"/><circle cx="725" cy="1" r="1" fill="#27AAE1"/><circle cx="747" cy="1" r="1" fill="#27AAE1"/><circle cx="769" cy="1" r="1" fill="#27AAE1"/><circle cx="791" cy="1" r="1" fill="#27AAE1"/><circle cx="813" cy="1" r="1" fill="#27AAE1"/><circle cx="835" cy="1" r="1" fill="#27AAE1"/><circle cx="857" cy="1" r="1" fill="#27AAE1"/><circle cx="879" cy="1" r="1" fill="#27AAE1"/><circle cx="901" cy="1" r="1" fill="#27AAE1"/><circle cx="923" cy="1" r="1" fill="#27AAE1"/><circle cx="945" cy="1" r="1" fill="#27AAE1"/><circle cx="967" cy="1" r="1" fill="#27AAE1"/><circle cx="989" cy="1" r="1" fill="#27AAE1"/><circle cx="1011" cy="1" r="1" fill="#27AAE1"/></svg>