<svg width="16" height="17" fill="none" xmlns="http://www.w3.org/2000/svg"><path d="M5.027 5.86c.797-.798 1.758-1.196 2.883-1.196s2.074.399 2.848 1.195c.797.774 1.195 1.723 1.195 2.848 0 1.125-.398 2.086-1.195 2.883-.774.773-1.723 1.16-2.848 1.16-1.125 0-2.086-.387-2.883-1.16-.773-.797-1.16-1.758-1.16-2.883s.387-2.074 1.16-2.848zm1.02 4.71a2.54 2.54 0 001.863.774 2.54 2.54 0 001.863-.774 2.54 2.54 0 00.774-1.863 2.54 2.54 0 00-.774-1.863A2.54 2.54 0 007.91 6.07a2.54 2.54 0 00-1.863.774 2.54 2.54 0 00-.774 1.863c0 .727.258 1.348.774 1.863zm6.715-6.715a.803.803 0 01.281.633c0 .258-.094.48-.281.668a.802.802 0 01-.633.282.913.913 0 01-.668-.282.912.912 0 01-.281-.668c0-.258.093-.468.28-.633a.913.913 0 01.669-.28c.258 0 .469.093.633.28zm2.988 1.618c.023.632.035 1.71.035 3.234 0 1.523-.012 2.602-.035 3.234-.07 1.43-.504 2.543-1.3 3.34-.774.774-1.876 1.184-3.305 1.23-.633.048-1.711.071-3.235.071-1.523 0-2.601-.023-3.234-.07-1.43-.07-2.531-.492-3.305-1.266a3.394 3.394 0 01-.738-.984 5.774 5.774 0 01-.422-1.09 6.336 6.336 0 01-.106-1.23c-.046-.633-.07-1.712-.07-3.235s.024-2.613.07-3.27c.07-1.406.493-2.496 1.266-3.269.774-.797 1.875-1.23 3.305-1.3C5.309.843 6.386.831 7.91.831s2.602.012 3.235.035c1.43.07 2.53.504 3.304 1.301.797.773 1.23 1.875 1.301 3.305zm-1.688 7.875c.07-.188.13-.422.176-.704.047-.304.082-.656.106-1.054.023-.422.035-.762.035-1.02V6.844a17.4 17.4 0 00-.035-.985 9.957 9.957 0 00-.106-1.054 3.812 3.812 0 00-.175-.739 2.538 2.538 0 00-1.512-1.511 3.81 3.81 0 00-.739-.176 9.949 9.949 0 00-1.054-.106 17.371 17.371 0 00-.985-.035H6.047c-.258 0-.598.012-1.02.035-.398.024-.75.059-1.054.106a3.829 3.829 0 00-.703.176 2.537 2.537 0 00-1.512 1.511 3.81 3.81 0 00-.176.739 9.95 9.95 0 00-.105 1.054 17.37 17.37 0 00-.036.985v4.219c.024.351.047.656.07.914a9.32 9.32 0 00.247 1.37c.304.727.808 1.231 1.512 1.512.187.07.421.13.703.176.304.047.656.082 1.054.106.422.023.75.035.985.035h3.762c.257 0 .585-.012.984-.035a9.962 9.962 0 001.055-.106c.304-.047.55-.105.738-.176.726-.304 1.23-.808 1.511-1.511z" fill="#fff"/></svg>