<svg width="230" height="230" fill="none" xmlns="http://www.w3.org/2000/svg"><path d="M226.71 58.808l-.019.017-.019.019-49.616 49.616c-3.535 3.535-3.535 9.759 0 13.294l49.616 49.617c2.754 2.754 2.754 7.711 0 10.466l-45.074 45.074c-2.754 2.754-7.711 2.754-10.465 0l-49.617-49.617c-3.535-3.535-9.759-3.535-13.294 0l-49.617 49.617c-2.754 2.754-7.711 2.754-10.465 0L3.066 181.837c-2.755-2.755-2.755-7.712 0-10.466l49.616-49.617c3.535-3.535 3.535-9.759 0-13.294L3.066 58.844C.31 56.09.31 51.132 3.066 48.378L48.14 3.304c2.754-2.754 7.71-2.754 10.465 0l49.617 49.616c3.535 3.535 9.759 3.535 13.294 0l49.617-49.616c2.754-2.754 7.711-2.754 10.465 0l45.074 45.074c3.126 3.125 3.069 7.702.038 10.43z" fill="#fff" stroke="url(#paint0_linear_62_24)" stroke-width="2"/><defs><linearGradient id="paint0_linear_62_24" x1="0" y1="115.107" x2="230" y2="115.107" gradientUnits="userSpaceOnUse"><stop stop-color="#F7941D"/><stop offset="1" stop-color="#27AAE1"/></linearGradient></defs></svg>