<svg width="99" height="124" fill="none" xmlns="http://www.w3.org/2000/svg"><path d="M32.365 42.29s-.173 1.517.802 3.6c.89 1.901 2.797 4.322 6.775 6.213 4.285 2.079 8.742.986 12.003-.54 2.807-1.315 4.593-2.925 4.684-2.967l.32-.26 18.424 12.463-2.368 18.997 7.517-3.52.09-.042s8.461-1.975 12.066 5.723l-.272.128.272-.128-.272.128.272-.128 5.81 12.408.211.452-61.535 28.703-5.64-12.045s-4.568-10.228 4.084-14.39l6.068-2.84-4.665-9.962.453-.212.03.537c-.09.043-19.68 1.596-33.165-27.203l-.042-.09C-9.235 28.2 19.051 5.13 28.197.847l.453-.212 5.27 10.782 30.019 13.88.042.091s2.105 1.665 3.165 3.929c.763 1.63 1.02 3.829-.905 5.613a9.602 9.602 0 01-2.734 1.943c-3.713 1.739-8.16.73-11.994-1.561l.235-.441.441.234s-2.438 6.111-8.144 8.783c-.815.382-1.763.715-2.663.916-5.532 1.155-11.643-1.284-14.648-7.938-1.145-2.445-1.916-5.507-2.09-9.18l.985-.02c.089 3.493.817 6.464 1.92 8.819 2.926 6.248 8.505 8.495 13.633 7.419.9-.2 1.666-.45 2.481-.831 5.253-2.46 7.638-8.214 7.638-8.214l.193-.532.483.326c3.7 2.242 7.84 3.065 11.1 1.538.906-.424 1.636-.987 2.505-1.725 1.514-1.482 1.374-2.962.653-4.502-.933-1.992-2.862-3.518-2.862-3.518l.277-.35-.235.44L33.13 12.56 27.903 1.868l.453-.212.212.453C19.602 6.307-8.092 28.99 5.138 57.247l.043.09c13.316 28.438 32.107 26.595 32.15 26.685l.314-.036 5.258 11.23-6.973 3.265c-7.74 3.514-3.602 13.06-3.602 13.06l-.453.212.453-.212 5.216 11.139L97.72 94.613l.212.453-.453.212-5.81-12.407.453-.212-.453.212c-3.265-6.974-10.917-5.157-10.96-5.248l-.12-.495.211.453-9.147 4.283 2.578-20.2L56.6 49.715l.235-.442.303.41s-1.967 1.695-4.865 3.052c-3.351 1.569-8.08 2.79-12.898.518-4.153-2.03-6.234-4.59-7.21-6.672-1.06-2.264-.88-4.005-.923-4.095l1.123-.195z" fill="url(#paint0_linear_88_22)"/><defs><linearGradient id="paint0_linear_88_22" x1="11.284" y1="72.258" x2="74.316" y2="42.743" gradientUnits="userSpaceOnUse"><stop stop-color="#F7941D"/><stop offset="1" stop-color="#27AAE1"/></linearGradient></defs></svg>