<svg width="130" height="130" fill="none" xmlns="http://www.w3.org/2000/svg"><path d="M127.849 32.82l-.019.017-.019.019-28.044 28.076c-2.167 2.17-2.167 5.966 0 8.136l28.044 28.076c1.388 1.389 1.388 3.92 0 5.309l-25.476 25.506c-1.387 1.388-3.913 1.388-5.3 0L68.99 99.883c-2.168-2.17-5.962-2.17-8.13 0l-28.044 28.076c-1.387 1.388-3.913 1.388-5.3 0L2.041 102.453c-1.388-1.389-1.388-3.92 0-5.309l28.044-28.076c2.167-2.17 2.167-5.966 0-8.136L2.04 32.856c-1.388-1.389-1.388-3.92 0-5.309L27.517 2.041c1.387-1.388 3.913-1.388 5.3 0l28.044 28.076c2.168 2.17 5.962 2.17 8.13 0L97.035 2.041c1.387-1.388 3.913-1.388 5.3 0l25.476 25.506c1.607 1.609 1.551 3.91.038 5.273z" stroke="url(#paint0_linear_170_15)" stroke-width="2"/><defs><linearGradient id="paint0_linear_170_15" x1="0" y1="65" x2="130" y2="65" gradientUnits="userSpaceOnUse"><stop stop-color="#F7941D"/><stop offset="1" stop-color="#27AAE1"/></linearGradient></defs></svg>