<svg width="180" height="180" fill="none" xmlns="http://www.w3.org/2000/svg"><path d="M177.28 45.729l-.02.017-.018.019-38.831 38.874c-2.851 2.855-2.851 7.867 0 10.722l38.831 38.874c2.071 2.074 2.071 5.821 0 7.895l-35.276 35.315c-2.07 2.073-5.812 2.073-7.882 0l-38.83-38.874c-2.852-2.855-7.861-2.855-10.713 0l-38.83 38.874c-2.07 2.073-5.812 2.073-7.882 0L2.553 142.13c-2.07-2.074-2.07-5.821 0-7.895l38.83-38.874c2.852-2.855 2.852-7.867 0-10.722L2.553 45.765c-2.07-2.074-2.07-5.821 0-7.895L37.83 2.555c2.07-2.073 5.812-2.073 7.882 0l38.83 38.874c2.852 2.855 7.861 2.855 10.713 0l38.83-38.874c2.07-2.073 5.812-2.073 7.882 0l35.276 35.315c2.366 2.37 2.31 5.812.038 7.859z" stroke="url(#paint0_linear_88_60)" stroke-width="2"/><defs><linearGradient id="paint0_linear_88_60" x1="0" y1="90" x2="180" y2="90" gradientUnits="userSpaceOnUse"><stop stop-color="#F7941D"/><stop offset="1" stop-color="#27AAE1"/></linearGradient></defs></svg>