<svg width="234" height="232" fill="none" xmlns="http://www.w3.org/2000/svg"><path d="M98.191 118.075l-.02.017-.018.019-21.572 21.597c-1.758 1.759-1.758 4.825 0 6.584l21.572 21.597c.977.979.977 2.78 0 3.758l-19.597 19.62c-.977.977-2.774.977-3.75 0L53.232 169.67c-1.758-1.76-4.822-1.76-6.58 0L25.08 191.267c-.977.977-2.774.977-3.75 0l-19.598-19.62c-.977-.978-.977-2.779 0-3.758l21.572-21.597c1.758-1.759 1.758-4.825 0-6.584L1.733 118.111c-.977-.979-.977-2.78 0-3.758l19.597-19.62c.977-.977 2.774-.977 3.75 0l21.573 21.597c1.758 1.76 4.822 1.76 6.58 0l21.572-21.597c.977-.977 2.774-.977 3.75 0l19.598 19.62c1.151 1.152 1.095 2.77.038 3.722z" stroke="url(#paint0_linear_40_81)" stroke-width="2"/><path d="M178 111c-30.333 0-55-24.667-55-55s24.667-55 55-55 55 24.667 55 55c0 30.5-24.665 55-55 55z" stroke="url(#paint1_linear_40_81)" stroke-width="2"/><path d="M169.47 151.972h0l.004-.008c.749-1.248 2.537-1.331 3.455.025l46.12 75.364.005.008c.915 1.465-.146 3.367-1.729 3.367h-92.262c-1.578 0-2.658-1.777-1.719-3.383l46.126-75.373z" stroke="url(#paint2_linear_40_81)" stroke-width="2"/><defs><linearGradient id="paint0_linear_40_81" x1="0" y1="143" x2="100" y2="143" gradientUnits="userSpaceOnUse"><stop stop-color="#F7941D"/><stop offset="1" stop-color="#27AAE1"/></linearGradient><linearGradient id="paint1_linear_40_81" x1="122" y1="56" x2="234" y2="56" gradientUnits="userSpaceOnUse"><stop stop-color="#F7941D"/><stop offset="1" stop-color="#27AAE1"/></linearGradient><linearGradient id="paint2_linear_40_81" x1="122" y1="190.864" x2="220.388" y2="190.864" gradientUnits="userSpaceOnUse"><stop stop-color="#F7941D"/><stop offset="1" stop-color="#27AAE1"/></linearGradient></defs></svg>