<svg width="100" height="100" fill="none" xmlns="http://www.w3.org/2000/svg"><path d="M98.191 25.075l-.02.017-.018.019-21.572 21.597c-1.758 1.759-1.758 4.825 0 6.584L98.153 74.89c.977.979.977 2.78 0 3.758l-19.597 19.62c-.977.978-2.774.978-3.75 0L53.232 76.67c-1.758-1.76-4.822-1.76-6.58 0L25.08 98.267c-.977.978-2.774.978-3.75 0L1.732 78.647c-.977-.979-.977-2.78 0-3.758l21.572-21.597c1.758-1.759 1.758-4.825 0-6.584L1.733 25.11c-.977-.979-.977-2.78 0-3.758L21.33 1.733c.977-.977 2.774-.977 3.75 0L46.654 23.33c1.758 1.76 4.822 1.76 6.58 0L74.805 1.733c.977-.977 2.774-.977 3.75 0l19.598 19.62c1.151 1.152 1.095 2.77.038 3.722z" stroke="url(#paint0_linear_168_17)" stroke-width="2"/><defs><linearGradient id="paint0_linear_168_17" x1="0" y1="50" x2="100" y2="50" gradientUnits="userSpaceOnUse"><stop stop-color="#F7941D"/><stop offset="1" stop-color="#27AAE1"/></linearGradient></defs></svg>