<svg width="49" height="36" fill="none" xmlns="http://www.w3.org/2000/svg"><path d="M23.4 34.2c-.2.2-.3.4-.3.7 0 .2.1.5.3.7.2.2.4.3.7.3.3 0 .5-.1.7-.3.2-.2.3-.4.3-.7 0-.2-.1-.5-.3-.7-.2-.2-.4-.3-.7-.3-.3 0-.5.1-.7.3zm-7.6-17l-2.4 2.4-.7-.7c-.4-.4-1-.4-1.3 0-.4.4-.4 1 0 1.3l1.3 1.3c.2.2.4.3.7.3.2 0 .5-.1.7-.3l3-3c.4-.4.4-1 0-1.3-.2-.2-.4-.3-.7-.3-.2 0-.4.1-.6.3zm18-.3v1.8c-.3-.2-.8-.1-1 .2-.4.4-.4 1 0 1.3l1.3 1.3c.2.2.4.3.7.3.1 0 .2 0 .4-.1.4-.1.6-.5.6-.9v-4c0-.5-.4-.9-.9-.9-.7.1-1.1.5-1.1 1zm-28.2 4c0-4.3 3.5-7.8 7.8-7.8s7.8 3.5 7.8 7.8-3.5 7.8-7.8 7.8-7.8-3.5-7.8-7.8zm-1.9 0c0 5.4 4.4 9.7 9.7 9.7 5.4 0 9.7-4.4 9.7-9.7 0-5.3-4.4-9.7-9.7-9.7-5.3 0-9.7 4.4-9.7 9.7zm23.2 0c0-4.3 3.5-7.8 7.8-7.8s7.8 3.5 7.8 7.8-3.5 7.8-7.8 7.8-7.8-3.5-7.8-7.8zm-1.9 0c0 5.4 4.4 9.7 9.7 9.7 5.4 0 9.7-4.4 9.7-9.7 0-5.3-4.4-9.7-9.7-9.7-5.3 0-9.7 4.4-9.7 9.7zM32 0c-.5 0-.9.4-.9.9s.4.9.9.9h1.8v4.1H14.4V3.6h1.8c.5 0 .9-.4.9-.9s-.4-.9-.9-.9h-5.5c-.5 0-.9.4-.9.9s.4.9.9.9h1.8v2.3H2.8C1.2 5.9 0 7.2 0 8.7v24.1c0 1.6 1.3 2.8 2.8 2.8h17c.5 0 .9-.4.9-.9s-.4-.9-.9-.9h-17c-.5 0-.9-.4-.9-.9V8.8c0-.5.4-.9.9-.9h42.6c.5 0 .9.4.9.9v24.1c0 .5-.4.9-.9.9h-17c-.5 0-.9.4-.9.9s.4.9.9.9h17c1.6 0 2.8-1.3 2.8-2.8V8.7c0-1.6-1.3-2.8-2.8-2.8h-9.7V1.8h1.8c.5 0 .9-.4.9-.9S38 0 37.5 0H32z" fill="url(#paint0_linear_80_8731)"/><defs><linearGradient id="paint0_linear_80_8731" x1="0" y1="17.95" x2="48.2" y2="17.95" gradientUnits="userSpaceOnUse"><stop stop-color="#F7941D"/><stop offset="1" stop-color="#27AAE1"/></linearGradient></defs></svg>