<svg width="43" height="37" fill="none" xmlns="http://www.w3.org/2000/svg"><path d="M20.152 14c1.1 0 1.1-1.7 0-1.7s-1.1 1.7 0 1.7zm9.6 7.9c.2-.1.4-.3.5-.5l.6-1.5c.1-.2.4-.3.6-.3h5.5c.2 0 .5.1.6.3l3.6 5.8c.1.1.1.3.1.3 0 .2-.1.4-.3.5-.1.1-.3.1-.5.1-.1 0-.3-.1-.4-.2l-1.7-3c-.2-.3-.6-.5-.9-.4-.4.1-.6.4-.6.8v11h-1.9v-5.7c0-.5-.4-.8-.8-.8-.5 0-.8.4-.8.8v5.7h-1.9v-11c0-.5-.4-.8-.8-.8-.5 0-.8.4-.8.8v.1l-5.1-2.7h-.1c-.2-.1-.4-.3-.4-.6v-.2c.1-.2.2-.3.3-.3.1-.1.3-.1.4 0l4.2 1.8c.1 0 .2.1.3.1.1 0 .2 0 .3-.1zm2.3-6c0-1.2.9-2.1 2.1-2.1 1.2 0 2.1.9 2.1 2.1 0 1.2-.9 2.1-2.1 2.1-1.2 0-2.1-.9-2.1-2.1zM9.552 4.4c0-1.5 1.3-2.8 2.8-2.8 1.5 0 2.8 1.3 2.8 2.8 0 1.5-1.3 2.8-2.8 2.8-1.6-.1-2.8-1.3-2.8-2.8zm-1.7 0c0 1.1.4 2 1 2.8-.9 0-1.7.5-2.2 1.2l-6.2 8.8c-.8 1.2-.5 2.8.6 3.6.4.3 1 .5 1.5.5.9 0 1.7-.4 2.1-1.1l2.3-3.3v18.9c0 .5.4.8.8.8h8.8c.5 0 .8-.4.8-.8V16.9l2.3 3.3c.6.9 1.7 1.3 2.6 1.1.2.7.7 1.3 1.4 1.6l5.8 3.1v9.8c0 .5.4.8.8.8h7.2c.5 0 .8-.4.8-.8v-8.6l.2.3v.1c.4.5.9.8 1.5.9.6.1 1.2 0 1.7-.4.6-.4 1-1.1 1-1.9 0-.5-.1-.9-.4-1.3l-3.6-5.8c-.4-.6-1-.9-1.6-1 .4-.6.7-1.3.7-2.1 0-2.1-1.7-3.8-3.8-3.8-2.1 0-3.8 1.7-3.8 3.8 0 .8.2 1.5.7 2.1-.7.1-1.3.5-1.6 1 0 .1-.1.1-.1.2l-.3.8-3.4-1.5h-.1c-.3-.1-.6-.2-.9-.1 0-.4-.2-.9-.5-1.2l-1.8-2.6c-.3-.4-.8-.5-1.2-.2-.4.3-.5.8-.2 1.2l1.8 2.6c.1.2.2.3.2.5 0 .3-.1.6-.4.8-.4.3-1 .2-1.3-.2l-3.9-5.5c-.2-.3-.6-.4-.9-.3-.4.1-.6.4-.6.8v20.7h-2.7V24.3c0-.5-.4-.8-.8-.8-.5 0-.8.4-.8.8v10.8h-2.7V14.4c0-.4-.2-.7-.6-.8-.4-.1-.7 0-.9.3l-3.9 5.5c-.2.2-.5.4-.8.4-.2 0-.4-.1-.5-.2-.4-.3-.5-.9-.2-1.3l6.2-8.8c.2-.3.6-.5.9-.5h6.7c.4 0 .7.2.9.5l1.7 2.4c.3.4.8.5 1.2.2.4-.3.5-.8.2-1.2l-1.7-2.4c-.5-.7-1.3-1.2-2.2-1.2.6-.8 1-1.7 1-2.8 0-2.5-2-4.5-4.5-4.5s-4.3 1.9-4.3 4.4z" fill="url(#paint0_linear_80_8723)"/><defs><linearGradient id="paint0_linear_80_8723" x1="0" y1="18.3" x2="42.652" y2="18.3" gradientUnits="userSpaceOnUse"><stop stop-color="#F7941D"/><stop offset="1" stop-color="#27AAE1"/></linearGradient></defs></svg>