<svg width="40" height="32" fill="none" xmlns="http://www.w3.org/2000/svg"><path d="M18.2 28.2c0-.9.7-1.6 1.6-1.6.9 0 1.6.7 1.6 1.6 0 .9-.7 1.6-1.6 1.6-.8 0-1.6-.7-1.6-1.6zm-1.5-.8H.8c-.4 0-.8.4-.8.8s.4.8.8.8h15.9c.4 1.4 1.6 2.4 3.1 2.4s2.7-1 3.1-2.4h15.4c.4 0 .8-.4.8-.8s-.4-.8-.8-.8H22.9c-.4-1.4-1.6-2.4-3.1-2.4s-2.7 1-3.1 2.4zm-.1-19.8l5.4 3.8-5.4 3.8V7.6zm-1.2-2.3c-.3.1-.4.4-.4.7v10.8c0 .3.2.6.4.7.4.2.7 0 .8-.1l7.6-5.4c.2-.2.3-.4.3-.7 0-.3-.1-.5-.3-.7l-7.6-5.4c-.1-.1-.3-.1-.5-.1 0 .2-.2.2-.3.2zM1.7 20.9V2.1c0-.2.2-.4.4-.4h35c.2 0 .4.2.4.4v18.8c0 .2-.2.4-.4.4h-35c-.2-.1-.4-.2-.4-.4zM2.1 0C1 0 .1.9.1 2v18.8c0 1.1.9 2 2 2h35c1.1 0 2-.9 2-2V2c0-1.1-.9-2-2-2h-35z" fill="url(#paint0_linear_80_8725)"/><defs><linearGradient id="paint0_linear_80_8725" x1="0" y1="15.7" x2="39.1" y2="15.7" gradientUnits="userSpaceOnUse"><stop stop-color="#F7941D"/><stop offset="1" stop-color="#27AAE1"/></linearGradient></defs></svg>