<svg width="38" height="40" fill="none" xmlns="http://www.w3.org/2000/svg"><path d="M9.7 34c0-.6.2-1.1.4-1.5.3-.6.8-1.2 1.3-1.6.1-.1.2-.1.3-.2.5-.3 1.3-.5 1.9-.5H24c.6 0 1.2.2 1.6.4l.5.3c.5.4.8.6 1.2 1.2.4.6.6 1.4.6 2.1v3.7h-3v-2.4c0-.5-.8-1-1.4-.5-.1.1-.2.4-.2.5v2.3h-9v-2.2c0-.4-.2-.7-.5-.8-.2-.1-.4-.1-.7 0-.1.1-.2.1-.3.2-.1.1-.2.3-.2.6v2.2h-3V34h.1zm4.2-5.5c-.4 0-.9 0-1.3.1-.1 0-.2 0-.3.1l-.8.3c-.4.2-.5.3-.9.5l-.4.3c-.4.4-1 1-1.3 1.5-.4.8-.8 1.7-.8 2.8v4.6c0 .4.4.8.8.8h19.8c.5 0 .9-.4.9-.9v-4.2c0-2-.8-3.7-2.4-4.8 0 0-.1 0-.1-.1l-.3-.2c-.6-.3-.9-.4-1.6-.6-.3-.1-.9-.1-1.3-.1h-10v-.1zm2.2-3.9l-.3-.2c-.2-.2-.5-.6-.7-.9l-.4-.9c-.1-.4-.2-.9-.2-1.4 0-.3.1-.7.1-1 .1-.3.2-.6.3-.8.2-.5.3-.6.6-1l.3-.3c1.4-1.4 3.7-1.7 5.4-.5.1 0 .1.1.1.1 1 .7 1.7 2.1 1.7 3.3 0 .5 0 .7-.1 1.2-.1.4-.1.4-.3.8l-.3.5v.1s0 .1-.1.1c-.5.7-1.2 1.2-2 1.5-.5.2-.9.3-1.4.3-.9 0-1.9-.3-2.7-.9zm1.2-9.1l-.5.2c-.2.1-.3.1-.5.2l-.2.1c-.1 0-.1 0-.1.1l-.6.3c-.7.5-1.2 1.1-1.7 1.8 0 .1-.1.1-.1.2-.4.6-.7 1.8-.7 2.5s0 1.4.3 2.1c.1.1.1.3.2.5.4.9.7 1.2 1.4 1.9.3.3.7.5 1 .8.1 0 .1.1.2.1.5.3.7.4 1.3.5.4.1 1.3.2 1.6.2.4-.1.6 0 1.3-.2.4-.1 1-.3 1.3-.5l.2-.1c.5-.3.5-.3.9-.6l.2-.2.2-.2.3-.4c1.2-1.5 1.7-3.3 1.2-5.2-.3-1-.8-2-1.5-2.8l-.1-.1h-.1c-.4-.3-.3-.3-.8-.6l-.7-.4c-.6-.3-1.6-.6-2.3-.6h-.2c-.5.2-.8.2-1.5.4zm12.3.1c0-.2.1-.4.1-.5.1-.7.2-.8-.4-1.3l-1.1-1.1c-.1-.1-.1-.1 0-.1.1-.1 1.7-.2 2-.3.1 0 .3-.1.4-.2 0 0 .1-.1.1-.2l.9-1.8c0 .1.4.8.5 1 .6 1.2.4 1.1 1.7 1.3.2 0 .4.1.6.1.1 0 .6.1.6.1v.1l-.1.1-.7.7-.2.2c-.2.2-.3.3-.4.5-.2.3 0 1 .1 1.4l.2 1.1-1-.5c-.2-.1-.9-.5-1-.5-.5 0-.5.1-1 .3l-.5.1-.5.3s-.1 0-.1.1l-.4.2.2-1.1zM31 7.7c-.2.2-.6 1-.7 1.3 0 .1 0 .1-.1.2-.1.2-.6 1.2-.8 1.5 0 .1 0 .1-.2.1l-.9.1c-.2 0-.4.1-.6.1-.4.1-1.4.2-1.7.3-.3.1-.5.4-.5.8 0 .2.1.4.2.5l1 1c.3.3.6.6.9.8h.1c.2.1.3.3.4.4-.1.3-.2 1.3-.3 1.6l-.2 1.2c0 .3-.2.6.1 1 .2.2.4.3.7.3.2 0 .7-.3 1-.4l.3-.2c.1-.1.2-.1.3-.2l1.5-.8c.1 0 .1 0 .3.1l2.2 1.1c.2.1.4.3.7.3.3 0 .5 0 .7-.2.4-.4.2-.9.1-1.5 0-.1 0-.3-.1-.4l-.3-2c.1 0 .1-.1.2-.1.3-.2 1.2-1.2 1.7-1.7.3-.3.6-.5.7-.9v-.2c0-.1 0-.1-.1-.2-.2-.5-.6-.5-1-.6-.2 0-.4-.1-.6-.1-.2 0-.4-.1-.6-.1l-1.1-.2c-.6-.1-.4.1-.7-.6l-.9-1.7c0-.1 0-.1-.1-.2-.2-.3-.1-.4-.4-.6-.1-.1-.3-.2-.6-.2-.2.1-.4.2-.6.4zM4.1 15.1c.1-.3.1-.6 0-.9l-.2-.2-.4-.4-.9-.9c.3-.1 1.5-.2 1.9-.3.2 0 .4-.1.5-.2.1-.1.2-.3.3-.5l.5-1c.1-.1.2-.4.2-.5 0 .1.4.8.5 1l.5 1c.3.3.7.3 1.1.3.2 0 1.2.2 1.3.2L8.1 14c-.1.1-.2.1-.2.2-.2.3-.1.6 0 1l.3 1.6c-.3-.2-.7-.3-1-.5-.2-.1-.8-.5-1-.5-.5 0-.5.1-1 .3l-1.3.7.2-1.7zm1.4-7.4c-.2.2-.6 1-.7 1.3 0 0 0 .1-.1.1l-.8 1.7c-.1.1-.2.1-.5.1l-1.7.2c-.3 0-.9.1-1.1.2-.3.1-.6.4-.6.7 0 .5.2.6.5.9l1 1c.2.2 1 .9 1 1l-.4 2.5c0 .3-.1.5-.1.9 0 .5.6 1 1.3.6l2.5-1.3c.1 0 .1-.1.2-.1.1.1.2.1.3.2.1 0 .1 0 .2.1.2.1.9.4 1.1.6l1.1.6c.1.1.1 0 .1.2.4 0 .7 0 .9-.2.4-.3.2-.8.1-1.3-.1-.3-.1-.5-.1-.8l-.2-1.1c0-.1-.1-.3-.1-.4 0-.3-.1-.2.3-.5l1-1 .4-.4c.5-.5 1.2-1 .7-1.6-.1-.2-.3-.3-.6-.3-.7-.1-1.6-.2-2.4-.3l-.8-.1-.4-.9c-.1-.1-1-2-1.1-2.1-.2-.2-.4-.3-.6-.3-.1-.5-.3-.4-.4-.2zM17 7.3c0-.3 0-.5-.1-.6l-.5-.5c-.2-.2-.9-.8-1-.9.1 0 .5-.1.6-.1.3 0 1.4-.2 1.6-.3.2-.1.3-.2.4-.4l.6-1.2s0-.1.1-.1l.2-.4c.1.1.7 1.3.8 1.5.2.3.3.7.7.7l1.3.2h.6c0 .1-.3.3-.4.4l-1.1 1.1c-.2.4-.1.8 0 1.2 0 .2.1.4.1.6v.3c0 .1.1.2.1.3-.1 0-1-.5-1.3-.7l-.6-.3c-.2-.1-.5 0-.8.2L17 9c-.1 0-.2.1-.3.1l.3-1.8zM18.3.2c-.2.2-.5.9-.7 1.3l-.9 1.7c-.1.2 0 .1-.4.2-.2 0-.4.1-.6.1-.5.1-2 .3-2.3.3-.3.1-.6.4-.6.7 0 .5.2.6.5.9l.5.5.2.2.7.7.3.3c.1.1.2.3.3.3 0 .2-.1.6-.1.8l-.3 1.6c-.1.4-.3 1.1.1 1.4.3.3.7.3 1.1.1.1-.1.3-.1.4-.2.4-.3 1.4-.7 1.9-1 .1 0 .4-.2.4-.2l2.3 1.2c.3.2.9.6 1.4.1.4-.4.2-.9.1-1.5-.1-.3-.1-.6-.2-1-.1-.3-.1-.7-.2-1-.1-.5-.1-.3.3-.7l.3-.3 1.5-1.4c.3-.3.4-.4.4-.8s-.3-.6-.5-.7c-.2 0-2.4-.4-2.7-.4l-.6-.1L19.6.6c-.2-.4-.4-.6-.9-.6-.1.1-.3.1-.4.2z" fill="url(#paint0_linear_80_8727)"/><defs><linearGradient id="paint0_linear_80_8727" x1="0" y1="19.75" x2="37.7" y2="19.75" gradientUnits="userSpaceOnUse"><stop stop-color="#F7941D"/><stop offset="1" stop-color="#27AAE1"/></linearGradient></defs></svg>