<svg width="33" height="40" fill="none" xmlns="http://www.w3.org/2000/svg"><path d="M3.525 35.2l13.9-3.7.7 2.5-13.9 3.7-.7-2.5zm2.5-5.2c.5-1.9.5-4 0-5.9l-.9-3.2 3.9-1 .9 3.2c.5 1.9 1.5 3.7 2.9 5.1.8.9 1.8 1.6 2.9 2.2l-11 3c.5-1.1 1-2.2 1.3-3.4zm-3.1-14c-.1-.2-.1-.4 0-.5.1-.2.2-.3.4-.3l4.3-1.2c.2 0 .4 0 .5.1.1.1.2.3.2.5l.1 3.9-3.5 1-2-3.5zm12.5 5.9c1.1-.6 2-1.3 2.9-2.2 1.4-1.4 2.4-3.2 2.9-5.1l.9-3.2 5.1 1.4-.9 3.2c-.5 1.9-.5 4 0 5.9.3 1.2.8 2.3 1.4 3.3l-12.3-3.3zM2.125 12l-.5-1.7c.7-.5 1.2-1.2 1.2-2.1l1.7-.5c.2.4.5.7.9.9.4.2.8.3 1.2.3l.5 1.7c-.4.2-.7.5-.9.9-.2.4-.3.8-.3 1.2l-1.7.5c-.5-.7-1.3-1.2-2.1-1.2zm20.7-2c.4-1.7.4-3.5 0-5.2.4.3.8.7 1 1.1.2.4.7.5 1 .3.4-.2.9-.4 1.4-.5.4.3.7.7 1 1.1.2.4.7.5 1 .3.5-.3 1-.4 1.5-.5-1.1 1.3-2 2.8-2.5 4.5l-4.4-1.1zm3.9-5.7c-.6-.2-1-.8-.9-1.5.1-.5.6-.9 1.2-.9h.3c.3.1.6.3.7.6.2.3.2.6.1.9-.1.5-.6.9-1.2.9h-.2zm-2.3-1.9c-.2.7-.1 1.4.2 2-.7-.8-1.6-1.4-2.7-1.6-.3-.1-.6 0-.7.2-.2.2-.3.5-.2.8.6 1.9.7 4 .3 5.9l-.3-.1c-.4-.1-.8.1-.9.5-.1.4.1.8.5.9l-.9 3.2c-.9 3.4-3.6 6.1-6.9 7.1-.3.1-.4.3-.5.5l-.6 2.2c-.2-.4-.3-.8-.4-1.3l-.9-3.2.3-.1c.4-.1.6-.5.5-.9-.1-.4-.5-.6-.9-.5l-.4.1-.1-3.6c0-.7-.3-1.3-.8-1.7-.4-.3-1-.5-1.5-.4 0 0 0-.1.1-.1.1-.2.4-.4.6-.5.2-.1.4-.2.5-.4.1-.2.1-.4.1-.6l-.8-2.9c-.1-.2-.2-.4-.4-.5-.2-.1-.4-.1-.6-.1-.3.1-.6 0-.8-.1-.2-.1-.4-.4-.5-.6-.1-.2-.2-.4-.4-.5-.2-.1-.4-.1-.6-.1l-2.9.8c-.2.1-.4.2-.5.4-.1.2-.1.4-.1.6.1.3 0 .6-.1.8-.1.2-.4.4-.6.5-.4.1-.6.5-.5.9l.8 2.9c.1.4.5.6.9.5.3-.1.7 0 .9.2-.5.2-.9.6-1.1 1.1-.3.6-.2 1.3.1 1.9l1.7 3.1-.4.1c-.4.1-.6.5-.5.9.1.3.4.6.7.6h.2l.3-.1.9 3.2c.9 3.4 0 7.1-2.4 9.6-.2.2-.3.5-.2.7l1.1 3.9c.1.2.2.4.4.5.1.1.2.1.4.1h.2l15.4-4.1c.2-.1.4-.2.5-.4.1-.2.1-.4.1-.6l-1.1-3.9c-.1-.3-.3-.5-.5-.5-1.6-.5-3-1.4-4.2-2.5l3.8 1c.4.1.8-.1.9-.5.1-.4-.1-.8-.5-.9l-5.3-1.4.7-2.5 15.1 4-.7 2.5-5.3-1.4c-.4-.1-.8.1-.9.5-.1.4.1.8.5.9l6 1.6h.2c.1 0 .3 0 .4-.1.2-.1.3-.3.4-.5l1.1-4c.1-.3 0-.5-.2-.7-2.4-2.6-3.3-6.2-2.4-9.6l.9-3.2h.1c.3 0 .6-.2.7-.6.1-.4-.1-.8-.5-.9l-.3-.1c.6-1.9 1.8-3.6 3.3-5 .2-.2.3-.5.2-.7-.1-.3-.3-.5-.5-.6-1-.3-2.1-.2-3.1.1.6-.4 1-.9 1.2-1.6.2-.7.1-1.4-.3-2.1-.4-.6-1-1.1-1.7-1.3-.2-.1-.5-.1-.7-.1-1.5.4-2.6 1.2-2.9 2.4z" fill="url(#paint0_linear_80_8722)"/><defs><linearGradient id="paint0_linear_80_8722" x1="0" y1="19.6" x2="32.465" y2="19.6" gradientUnits="userSpaceOnUse"><stop stop-color="#F7941D"/><stop offset="1" stop-color="#27AAE1"/></linearGradient></defs></svg>