<svg width="85" height="85" fill="none" xmlns="http://www.w3.org/2000/svg"><path d="M83.365 21.397l-.02.018-.019.018-18.3 18.301c-1.55 1.55-1.55 4.246 0 5.796l18.3 18.3c.77.77.77 2.199 0 2.968L66.701 83.424c-.77.769-2.198.769-2.967 0L45.433 65.123c-1.55-1.55-4.246-1.55-5.796 0l-18.3 18.3c-.77.77-2.199.77-2.968 0L1.744 66.799c-.77-.769-.77-2.198 0-2.967l18.3-18.3c1.55-1.551 1.55-4.246 0-5.797l-18.3-18.3-.708.707.708-.707c-.77-.77-.77-2.199 0-2.968L18.369 1.84c.77-.77 2.198-.77 2.967 0l.707-.707-.707.707 18.3 18.3c1.551 1.55 4.246 1.55 5.797 0l18.3-18.3c.77-.77 2.199-.77 2.968 0l16.625 16.625c.92.92.864 2.188.039 2.931z" stroke="url(#paint0_linear_62_33)" stroke-width="2"/><defs><linearGradient id="paint0_linear_62_33" x1=".167" y1="42.632" x2="85" y2="42.632" gradientUnits="userSpaceOnUse"><stop stop-color="#F7941D"/><stop offset="1" stop-color="#27AAE1"/></linearGradient></defs></svg>