<svg width="44" height="44" fill="none" xmlns="http://www.w3.org/2000/svg"><path d="M42.83 10.617l-.02.017-.019.019-9.492 9.503c-.991.992-.991 2.696 0 3.688l9.492 9.503c.212.212.212.65 0 .862l-8.623 8.633c-.21.21-.646.21-.857 0l-9.492-9.503c-.992-.993-2.696-.993-3.688 0l-9.492 9.503c-.21.21-.646.21-.857 0l-8.623-8.633c-.212-.212-.212-.65 0-.862l9.492-9.503c.991-.992.991-2.696 0-3.688l-9.492-9.503-.708.707.708-.707c-.212-.212-.212-.65 0-.862l8.623-8.633c.21-.21.646-.21.857 0l9.492 9.503c.992.993 2.696.993 3.688 0l9.492-9.503c.21-.21.646-.21.857 0l8.623 8.633c.3.3.244.64.038.826z" stroke="url(#paint0_linear_3_43)" stroke-width="2"/><defs><linearGradient id="paint0_linear_3_43" x1="0" y1="22" x2="44" y2="22" gradientUnits="userSpaceOnUse"><stop stop-color="#F7941D"/><stop offset="1" stop-color="#27AAE1"/></linearGradient></defs></svg>