<svg width="248" height="152" fill="none" xmlns="http://www.w3.org/2000/svg"><path fill-rule="evenodd" clip-rule="evenodd" d="M37 1C25.954 1 17 9.954 17 21v73H3.702c-1.891 0-2.726 2.38-1.25 3.562L17 109.2V131c0 11.046 8.954 20 20 20h190c11.046 0 20-8.954 20-20V21c0-11.046-8.954-20-20-20H37z" fill="#fff"/><path d="M17 94v1h1v-1h-1zM2.452 97.562l.625-.781-.625.78zM17 109.2h1v-.481l-.375-.3-.625.781zM18 21c0-10.493 8.507-19 19-19V0C25.402 0 16 9.402 16 21h2zm0 73V21h-2v73h2zM3.702 95H17v-2H3.702v2zm-.625 1.78c-.738-.59-.32-1.78.625-1.78v-2c-2.836 0-4.089 3.571-1.875 5.343l1.25-1.562zm14.548 11.639L3.077 96.781l-1.25 1.562 14.548 11.638 1.25-1.562zM18 131v-21.8h-2V131h2zm19 19c-10.493 0-19-8.507-19-19h-2c0 11.598 9.402 21 21 21v-2zm190 0H37v2h190v-2zm19-19c0 10.493-8.507 19-19 19v2c11.598 0 21-9.402 21-21h-2zm0-110v110h2V21h-2zM227 2c10.493 0 19 8.507 19 19h2c0-11.598-9.402-21-21-21v2zM37 2h190V0H37v2z" fill="url(#paint0_linear_3_212)"/><defs><linearGradient id="paint0_linear_3_212" x1="1.698" y1="76" x2="247" y2="76" gradientUnits="userSpaceOnUse"><stop stop-color="#F7941D"/><stop offset="1" stop-color="#27AAE1"/></linearGradient></defs></svg>