<svg width="352" height="140" fill="none" xmlns="http://www.w3.org/2000/svg"><path fill-rule="evenodd" clip-rule="evenodd" d="M21 1C9.954 1 1 9.954 1 21v70c0 11.046 8.954 20 20 20h271.5l34.251 27.4c1.309 1.048 3.249.116 3.249-1.561V111h1c11.046 0 20-8.954 20-20V21c0-11.046-8.954-20-20-20H21z" fill="#fff"/><path d="M292.5 111v-1h.351l.274.219-.625.781zm34.251 27.4l.624-.78-.624.78zM330 111h-1v-1h1v1zM0 21C0 9.402 9.402 0 21 0v2C10.507 2 2 10.507 2 21H0zm0 70V21h2v70H0zm21 21c-11.598 0-21-9.402-21-21h2c0 10.493 8.507 19 19 19v2zm271.5 0H21v-2h271.5v2zm33.626 27.181l-34.251-27.4 1.25-1.562 34.25 27.401-1.249 1.561zm4.874-2.342c0 2.515-2.91 3.914-4.874 2.342l1.249-1.561a1 1 0 001.625-.781h2zM331 111v25.839h-2V111h2zm0 1h-1v-2h1v2zm21-21c0 11.598-9.402 21-21 21v-2c10.493 0 19-8.507 19-19h2zm0-70v70h-2V21h2zM331 0c11.598 0 21 9.402 21 21h-2c0-10.493-8.507-19-19-19V0zM21 0h310v2H21V0z" fill="url(#paint0_linear_80_11233)"/><defs><linearGradient id="paint0_linear_80_11233" x1="351" y1="69.921" x2="1" y2="69.921" gradientUnits="userSpaceOnUse"><stop stop-color="#F7941D"/><stop offset="1" stop-color="#27AAE1"/></linearGradient></defs></svg>