<svg width="302" height="146" fill="none" xmlns="http://www.w3.org/2000/svg"><path fill-rule="evenodd" clip-rule="evenodd" d="M21 1C9.954 1 1 9.954 1 21v90c0 11.046 8.954 20 20 20h50v11.839c0 1.677 1.94 2.609 3.25 1.561L91 131h190c11.046 0 20-8.954 20-20V21c0-11.046-8.954-20-20-20H21z" fill="#fff"/><path d="M71 131h1v-1h-1v1zm3.25 13.4l.624.781-.625-.781zM91 131v-1h-.35l-.275.219L91 131zM2 21C2 10.507 10.507 2 21 2V0C9.402 0 0 9.402 0 21h2zm0 90V21H0v90h2zm19 19c-10.493 0-19-8.507-19-19H0c0 11.598 9.402 21 21 21v-2zm50 0H21v2h50v-2zm-1 1v11.839h2V131h-2zm0 11.839c0 2.515 2.91 3.914 4.874 2.342l-1.25-1.561a1 1 0 01-1.624-.781h-2zm4.874 2.342l16.75-13.4-1.249-1.562-16.75 13.401 1.25 1.561zM281 130H91v2h190v-2zm19-19c0 10.493-8.507 19-19 19v2c11.598 0 21-9.402 21-21h-2zm0-90v90h2V21h-2zM281 2c10.493 0 19 8.507 19 19h2c0-11.598-9.402-21-21-21v2zM21 2h260V0H21v2z" fill="url(#paint0_linear_3_39)"/><defs><linearGradient id="paint0_linear_3_39" x1="1" y1="72.921" x2="301" y2="72.921" gradientUnits="userSpaceOnUse"><stop stop-color="#F7941D"/><stop offset="1" stop-color="#27AAE1"/></linearGradient></defs></svg>