<svg width="420" height="192" fill="none" xmlns="http://www.w3.org/2000/svg"><path fill-rule="evenodd" clip-rule="evenodd" d="M49.68 1c-11.046 0-20 8.954-20 20v80H3.004c-1.677 0-2.61 1.94-1.562 3.249l28.238 35.297V171c0 11.046 8.954 20 20 20h349.105c11.046 0 20-8.954 20-20V21c0-11.046-8.954-20-20-20H49.68z" fill="#fff"/><path d="M29.68 101v1h1v-1h-1zm-28.238 3.249l-.78.625.78-.625zm28.238 35.297h1v-.35l-.22-.274-.78.624zM30.68 21c0-10.493 8.506-19 19-19V0c-11.598 0-21 9.402-21 21h2zm0 80V21h-2v80h2zm-1-1H3.004v2H29.68v-2zm-26.676 0C.488 100-.91 102.91.66 104.874l1.562-1.249a1 1 0 01.78-1.625v-2zM.66 104.874l28.24 35.297 1.561-1.249-28.237-35.297-1.562 1.249zM30.68 171v-31.454h-2V171h2zm19 19c-10.494 0-19-8.507-19-19h-2c0 11.598 9.402 21 21 21v-2zm349.105 0H49.68v2h349.105v-2zm19-19c0 10.493-8.507 19-19 19v2c11.598 0 21-9.402 21-21h-2zm0-150v150h2V21h-2zm-19-19c10.493 0 19 8.507 19 19h2c0-11.598-9.402-21-21-21v2zM49.68 2h349.105V0H49.68v2z" fill="url(#paint0_linear_62_2683)"/><defs><linearGradient id="paint0_linear_62_2683" x1="1" y1="96" x2="418.785" y2="96" gradientUnits="userSpaceOnUse"><stop stop-color="#F7941D"/><stop offset="1" stop-color="#27AAE1"/></linearGradient></defs></svg>