<svg width="352" height="140" fill="none" xmlns="http://www.w3.org/2000/svg"><path fill-rule="evenodd" clip-rule="evenodd" d="M21 1C9.954 1 1 9.954 1 21v70c0 11.046 8.954 20 20 20h120v25.839c0 1.677 1.94 2.609 3.249 1.561L178.5 111H331c11.046 0 20-8.954 20-20V21c0-11.046-8.954-20-20-20H21z" fill="#fff"/><path d="M141 111h1v-1h-1v1zm3.249 27.4l-.624-.78.624.78zM178.5 111v-1h-.351l-.274.219.625.781zM2 21C2 10.507 10.507 2 21 2V0C9.402 0 0 9.402 0 21h2zm0 70V21H0v70h2zm19 19c-10.493 0-19-8.507-19-19H0c0 11.598 9.402 21 21 21v-2zm120 0H21v2h120v-2zm-1 1v25.839h2V111h-2zm0 25.839c0 2.515 2.91 3.914 4.874 2.342l-1.249-1.561a1 1 0 01-1.625-.781h-2zm4.874 2.342l34.251-27.4-1.25-1.562-34.25 27.401 1.249 1.561zM331 110H178.5v2H331v-2zm19-19c0 10.493-8.507 19-19 19v2c11.598 0 21-9.402 21-21h-2zm0-70v70h2V21h-2zM331 2c10.493 0 19 8.507 19 19h2c0-11.598-9.402-21-21-21v2zM21 2h310V0H21v2z" fill="url(#paint0_linear_80_8675)"/><defs><linearGradient id="paint0_linear_80_8675" x1="1" y1="69.921" x2="351" y2="69.921" gradientUnits="userSpaceOnUse"><stop stop-color="#F7941D"/><stop offset="1" stop-color="#27AAE1"/></linearGradient></defs></svg>