<svg width="57" height="47" fill="none" xmlns="http://www.w3.org/2000/svg"><path d="M53.617 3.493h-2.355V1.255c0-.459-.37-.83-.83-.83h-5.023a.83.83 0 00-.83.83v2.238h-27.54V1.255c0-.459-.37-.83-.83-.83h-5.022c-.46 0-.83.371-.83.83v2.238H8.415a3.698 3.698 0 00-3.689 3.689v20.282c0 .46.37.83.83.83.459 0 .83-.37.83-.83V7.182c0-1.111.903-2.03 2.029-2.03h45.217c.89 0 1.615.726 1.615 1.615v27.557c0 .889-.726 1.615-1.615 1.615h-1.778v-3.156c0-.46-.37-.83-.83-.83h-8.948c-.46 0-.83.37-.83.83v3.156H27.853l3.156-.86a8.07 8.07 0 004.133-2.681l5.364-6.52a.902.902 0 00.192-.458l.474-6.223a1.491 1.491 0 00-.889-1.452.847.847 0 00.43-.726c0-.46-.37-.83-.83-.83H36.24c-.46 0-.83.37-.83.83 0 .46.37.83.83.83h2.726c-.09.06-.178.133-.252.207l-3.052 3.052c-.593.593-1.082 1.334-1.6 1.986-.282.355-.237.889.133 1.17.356.282.89.237 1.17-.133l.964-1.186 2.459 2.46-4.874 5.94a6.448 6.448 0 01-3.29 2.134l-13.156 3.793c-1.022.326-.503 1.911.504 1.585l2.89-.933v6.978h-1.157c-.459 0-.83.37-.83.83 0 .46.371.83.83.83h5.097c.46 0 .83-.37.83-.83 0-.46-.37-.83-.83-.83h-2.267v-7.29h31.128a3.275 3.275 0 003.274-3.273V6.782c-.044-1.823-1.511-3.29-3.319-3.29zm-7.393-1.408h3.364v1.393h-3.364V2.085zM12 2.085h3.364v1.393H12V2.085zm27.468 17.527l-.296 3.852-1.778-1.778 2.075-2.074zm3.408 16.327v-2.326h7.29v2.326h-7.29z" fill="#00093C"/><path d="M15.675 44.902H4.978v-4.43c0-2.814.652-5.614 1.882-8.133a4.086 4.086 0 013.644-2.267H24.55c2.934 0 5.793-1.037 8.045-2.919a.826.826 0 00.104-1.17.826.826 0 00-1.17-.104 10.91 10.91 0 01-6.964 2.534H18.52a5.414 5.414 0 001.51-3.749v-3.067a4.114 4.114 0 003.838-4.103 4.129 4.129 0 00-4.119-4.12c-1.392-.029-2.711.297-3.674 1.35a2.525 2.525 0 01-1.852.814h-2.296a3.471 3.471 0 00-3.467 3.467v6.252c0 .711.163 1.407.592 1.985.193.267.43.49.697.667.296.193.71.267.948.504-2.237-.045-4.356 1.185-5.334 3.2a20.255 20.255 0 00-2.06 8.874v4.43H.83c-.46 0-.83.37-.83.83 0 .46.37.83.83.83h14.845c.46 0 .83-.37.83-.83a.823.823 0 00-.83-.845zM14.37 28.383a3.771 3.771 0 01-1.333-.34c.192-.104.385-.223.548-.356.696-.578 1.081-1.423 1.081-2.386v-3.703h3.69v3.052a3.753 3.753 0 01-3.749 3.748c-.089 0-.163 0-.237-.015zm-4.237-3.14V18.99c0-.993.815-1.807 1.807-1.807h2.282a4.21 4.21 0 003.082-1.349c.651-.71 1.54-.844 2.459-.815a2.447 2.447 0 012.445 2.445 2.447 2.447 0 01-2.445 2.445h-5.926c-.46 0-.83.37-.83.83v4.548c0 .977-.86 1.585-1.793 1.407-.74-.118-1.081-.726-1.081-1.452zm18.402-12.091h4.533c.46 0 .83-.37.83-.83V9.255c0-.459-.37-.83-.83-.83h-4.533c-.46 0-.83.371-.83.83v3.067c-.015.46.356.83.83.83zm.83-3.067h2.874v1.393h-2.875v-1.393zm-1.675 8.446c0 .46.37.83.83.83h4.533c.46 0 .83-.37.83-.83v-3.067c0-.459-.37-.83-.83-.83H28.52c-.46 0-.83.371-.83.83v3.067zm1.674-2.222h2.875v1.393h-2.875v-1.393zm6.846-4.696h14.785c.46 0 .83-.37.83-.83 0-.46-.37-.83-.83-.83H36.21c-.459 0-.83.37-.83.83 0 .46.371.83.83.83z" fill="#00093C"/></svg>