<svg width="60" height="61" fill="none" xmlns="http://www.w3.org/2000/svg"><path d="M11.613 6.383a5.803 5.803 0 00-5.807 5.806 5.803 5.803 0 005.807 5.807 5.803 5.803 0 005.806-5.807 5.803 5.803 0 00-5.806-5.806zm0 9.677a3.882 3.882 0 01-3.871-3.87 3.882 3.882 0 013.87-3.872 3.882 3.882 0 013.872 3.871 3.882 3.882 0 01-3.871 3.871zm19.355-4.84h-1.936v1.936h1.936v-1.935zm7.742 0h-5.807v1.936h5.807v-1.935zm0 3.872h-9.678v1.935h9.678v-1.935zM11.613 47.027H3.87v5.807h7.742v-5.807zm-1.936 3.871h-3.87v-1.935h3.87v1.935zm9.678-3.871h-5.806v1.936h5.806v-1.936zm0 3.871h-5.806v1.936h5.806v-1.936zm0 3.872H3.87v1.935h15.484V54.77z" fill="#00093C"/><path d="M57.097 33.48H41.613a2.912 2.912 0 00-2.903 2.903v6.774h-3.871v-8.855c1.661-.435 2.903-1.935 2.903-3.726a3.857 3.857 0 00-2.903-3.726V20.9h4.838a2.912 2.912 0 002.904-2.904v-4.838h3.951c.468 2.742 2.855 4.838 5.726 4.838a5.803 5.803 0 005.097-8.58L59.71 7.06l-1.371-1.37-2.194 2.193a5.796 5.796 0 00-3.887-1.517c-2.87 0-5.258 2.097-5.726 4.84h-3.951v-4.84a2.912 2.912 0 00-2.904-2.903H28.064a2.912 2.912 0 00-2.903 2.903v4.84h-1.935v-1.71l-2.549-.694c-.08-.226-.177-.436-.274-.661l1.307-2.29-3.774-3.775-2.29 1.307c-.227-.097-.436-.194-.662-.275L14.29.576H8.935l-.693 2.549c-.226.08-.436.177-.661.274L5.29 2.092 1.515 5.866l1.307 2.29c-.097.227-.194.436-.275.662L0 9.512v5.354l2.548.694c.081.226.178.435.275.661l-1.307 2.29 3.774 3.775 2.29-1.307c.226.097.436.194.662.275l.693 2.532h1.71V39.27H2.903A2.912 2.912 0 000 42.173v15.484a2.912 2.912 0 002.903 2.903h17.42a2.912 2.912 0 002.903-2.903V42.173a2.912 2.912 0 00-2.903-2.903H12.58V23.786h1.71l.693-2.549c.226-.08.435-.177.661-.274l2.29 1.307 3.79-3.774-1.306-2.29c.097-.227.194-.436.274-.662l2.533-.694v-1.71h1.935v4.84a2.912 2.912 0 002.903 2.903h4.84v5.951C31.241 27.27 30 28.77 30 30.56a3.843 3.843 0 002.903 3.726v10.79h5.807v6.774a2.912 2.912 0 002.903 2.904h15.484A2.912 2.912 0 0060 51.85V36.367a2.898 2.898 0 00-2.903-2.888zM52.258 8.317c.968 0 1.839.371 2.516.952l-2.516 2.516L51 10.528l-1.371 1.37 2.613 2.614 3.629-3.63c.145.404.242.84.242 1.29a3.882 3.882 0 01-3.871 3.872 3.882 3.882 0 01-3.871-3.871c0-2.13 1.758-3.855 3.887-3.855zM20.323 58.641H2.903a.97.97 0 01-.968-.968v-12.58H21.29v12.58a.97.97 0 01-.967.968zm.967-16.452v.968H1.935v-.968a.97.97 0 01.968-.968h17.42a.97.97 0 01.967.968zm0-28.806l-2.129.58-.161.5a8.485 8.485 0 01-.548 1.323l-.242.468 1.096 1.919-1.693 1.71-1.92-1.097-.467.242c-.436.226-.887.42-1.323.548l-.5.162-.58 2.112h-2.388l-.58-2.129-.5-.161a8.479 8.479 0 01-1.323-.548l-.467-.242-1.92 1.096-1.693-1.693 1.096-1.92-.242-.467a7.657 7.657 0 01-.548-1.323l-.161-.5-2.113-.58v-2.387l2.129-.581.161-.5c.145-.452.323-.887.549-1.323l.242-.467-1.097-1.92L5.66 4.512l1.92 1.096.467-.242a7.72 7.72 0 011.323-.548l.5-.161.58-2.13h2.388l.58 2.13.5.161c.452.145.887.323 1.323.548l.468.242 1.919-1.096 1.694 1.693-1.097 1.92.242.467c.226.436.42.887.548 1.323l.161.5 2.13.58-.017 2.388zm6.774-7.968h11.613a.97.97 0 01.968.968v.967H27.097v-.967a.97.97 0 01.967-.968zm-.967 12.58v-8.71h13.548v8.71a.97.97 0 01-.968.968H28.064a.97.97 0 01-.967-.968zm4.838 12.581c0-1.064.871-1.935 1.936-1.935 1.064 0 1.935.87 1.935 1.935s-.87 1.936-1.935 1.936a1.941 1.941 0 01-1.936-1.936zm9.678 4.839h15.484a.97.97 0 01.968.968v.967h-17.42v-.967a.97.97 0 01.968-.968zm15.484 17.42H41.613a.97.97 0 01-.968-.968V39.285h17.42v12.58a.97.97 0 01-.968.968z" fill="#00093C"/><path d="M48.387 41.22h-5.806v5.807h5.806v-5.806zm-1.935 3.872h-1.936v-1.936h1.936v1.936zm9.677-3.872h-5.806v1.936h5.806v-1.935zm0 3.872h-5.806v1.935h5.806v-1.935zm0 3.871H42.581v1.935h13.548v-1.935z" fill="#00093C"/></svg>