<svg width="50" height="51" fill="none" xmlns="http://www.w3.org/2000/svg"><path d="M28.422 24.29c.147.293.44.452.745.452a.854.854 0 00.378-.085c.05-.025 4.957-2.515 7.374-3.285a.826.826 0 00.538-1.05.837.837 0 00-1.05-.549c-2.552.806-7.423 3.284-7.63 3.382-.392.232-.563.732-.355 1.135zm.745-9.534a.853.853 0 00.378-.086c.05-.024 4.957-2.515 7.374-3.284a.826.826 0 00.538-1.05.837.837 0 00-1.05-.55c-2.552.807-7.423 3.285-7.63 3.383a.832.832 0 00-.367 1.123c.17.293.464.464.757.464z" fill="#00093C"/><path d="M49.177 13.083a.831.831 0 00-.83.83v32.5a2.506 2.506 0 01-2.503 2.503h-20.01v-1.917c1.22-.427 4.383-1.416 7.496-1.416 7.264 0 12.184 1.611 12.233 1.623a.848.848 0 00.745-.11.816.816 0 00.342-.67V9.75a.837.837 0 00-.647-.818s-.66-.146-1.77-.354a.824.824 0 00-.965.671.842.842 0 00.671.977c.428.073.782.147 1.063.208v34.88c-1.893-.5-6.08-1.392-11.672-1.392-3.626 0-7.203 1.197-8.302 1.6-.977-.44-3.944-1.6-7.533-1.6-5.738 0-10.475.953-12.502 1.429V10.397c1.66-.415 6.58-1.477 12.502-1.477 3.04 0 5.64.952 6.666 1.38v32.792c0 .305.159.574.427.72a.833.833 0 00.843-.012c.085-.049 8.338-4.98 15.664-7.423a.828.828 0 00.574-.793V1.41a.85.85 0 00-.354-.683.822.822 0 00-.77-.098C33.88 3.133 27.128 7.333 27.067 7.37a.833.833 0 10.879 1.416c.06-.037 5.933-3.688 12.062-6.154v32.354c-5.69 1.977-11.635 5.2-14.174 6.653V9.75a.842.842 0 00-.464-.745c-.147-.073-3.565-1.758-7.875-1.758-7.533 0-13.32 1.624-13.564 1.697a.828.828 0 00-.598.806v36.675c0 .257.122.513.33.66.146.11.317.17.5.17a.767.767 0 00.232-.036c.061-.013 5.824-1.636 13.112-1.636 3.053 0 5.653.952 6.666 1.38v1.953H4.163a2.506 2.506 0 01-2.503-2.503v-32.5a.831.831 0 00-1.66 0v32.5a4.168 4.168 0 004.163 4.163h41.669a4.168 4.168 0 004.163-4.163v-32.5a.82.82 0 00-.818-.83z" fill="#00093C"/><path d="M28.422 19.296c.147.293.44.452.745.452a.853.853 0 00.378-.085c.05-.025 4.957-2.515 7.374-3.285a.826.826 0 00.538-1.05.837.837 0 00-1.05-.549c-2.552.806-7.423 3.284-7.63 3.382a.867.867 0 00-.355 1.135zm0 10c.147.293.44.452.745.452a.853.853 0 00.378-.085c.05-.025 4.957-2.515 7.374-3.285a.826.826 0 00.538-1.05.837.837 0 00-1.05-.549c-2.552.806-7.423 3.284-7.63 3.382a.867.867 0 00-.355 1.135zM20.193 16.05c-5.152-1.209-11 .33-11.244.39a.836.836 0 00-.586 1.026.848.848 0 001.026.598c.06-.012 5.689-1.501 10.426-.378a.828.828 0 001.001-.623.83.83 0 00-.623-1.013zm0 4.994c-5.152-1.209-11 .33-11.244.403a.836.836 0 00-.586 1.025.848.848 0 001.026.598c.06-.012 5.689-1.501 10.426-.378a.828.828 0 001.001-.623.847.847 0 00-.623-1.025zm8.229 13.258c.147.293.44.452.745.452a.854.854 0 00.378-.086c.05-.024 4.957-2.515 7.374-3.284a.826.826 0 00.538-1.05.837.837 0 00-1.05-.55c-2.552.807-7.423 3.285-7.63 3.383a.867.867 0 00-.355 1.135zm-8.229-8.252c-5.152-1.21-11 .33-11.244.402a.836.836 0 00-.586 1.026c.098.378.44.623.806.623.073 0 .146-.013.22-.025.06-.012 5.689-1.502 10.426-.378a.828.828 0 001.001-.623.842.842 0 00-.623-1.026zm0 9.998c-5.152-1.209-11 .33-11.244.39a.836.836 0 00-.586 1.026c.098.379.44.623.806.623.073 0 .146-.013.22-.025.06-.012 5.689-1.501 10.426-.378a.84.84 0 00.378-1.636zm0-4.995c-5.152-1.208-11 .33-11.244.403a.836.836 0 00-.586 1.026c.098.378.44.623.806.623.073 0 .146-.013.22-.025.06-.012 5.689-1.502 10.426-.378a.828.828 0 001.001-.623c.11-.476-.171-.928-.623-1.026z" fill="#00093C"/></svg>