<svg width="40" height="57" fill="none" xmlns="http://www.w3.org/2000/svg"><path d="M3.343 56.086h22.342a.813.813 0 100-1.626H9.061v-7.45a.813.813 0 10-1.626 0v7.45H3.343c-1.275 0-1.874-.547-1.69-1.92C3.88 41.668 3.884 40.79 4.248 39.9c.064-.089.414-1.343 2.133-2.073.178-.073.067-.024.678-.21.038-.011-.148.052 2.772-.962l1.948 3.596a.813.813 0 101.43-.775l-1.822-3.362 1.246-.432 6.493 11.985a.998.998 0 001.683.117c.075-.104-.358.673 6.555-12.106l1.245.433-6.583 12.175c-.868 1.605-3.175 1.606-4.043.002l-2.967-5.476a.813.813 0 10-1.43.775l2.967 5.476c1.484 2.739 5.423 2.736 6.904-.003l6.708-12.409c2.913 1.012 2.743.954 2.78.965.573.175.51.14.679.21.621.265.992.57.982.562.637.515 1.077 1.109 1.312 1.984.038.138 2.452 12.106 2.462 12.51.024 1.021-.417 1.578-1.716 1.578H32.57v-7.45a.813.813 0 10-1.626 0v7.45H29.48a.813.813 0 100 1.626h7.182c1.927 0 3.137-.978 3.32-2.684a4.515 4.515 0 00-.031-1.156c-2.473-12.418-2.366-11.889-2.378-11.94-.325-1.57-1.236-2.873-2.715-3.69-.69-.382-1.09-.442-1.438-.555l-6.076-2.11-2.025-1.39v-1.575a10.714 10.714 0 005.191-8.067c2.475.115 4.2-2.25 3.162-4.32V11.97c0-4.793-2.607-6.46-3.404-6.858C26.371.46 19.094-.734 13.577 2.097l-.01.006c-.095.055-1.232.581-2.632 1.752a.813.813 0 001.063 1.23c5.403-4.537 13.423-3.371 17.13 1.2a.781.781 0 00.338.246c.106.043 2.58 1.084 2.58 5.44v5.131a3.5 3.5 0 00-1.473-.274v-2.66a1.3 1.3 0 00-1.182-1.297c-1.367-.132-2.132-1.022-2.534-1.745a1.632 1.632 0 00-2.49-.45c-3.626 3.099-7.8 3.256-10.664 2.843a4 4 0 00-4.525 3.31 3.518 3.518 0 00-1.525.273c.004-2.8-.32-5.845 1.97-9.335a.813.813 0 10-1.361-.89C5.146 11.652 6.26 15.93 6.027 18.6c-1.037 2.07.686 4.436 3.162 4.32.404 3.861 2.782 6.083 2.839 6.18.422.404 1.18 1.25 2.658 2.064v1.398l-2.025 1.39c-7.924 2.752-7.12 2.418-7.763 2.81a5.331 5.331 0 00-2.412 3.308c-.07.279.046-.248-2.432 12.177-.05.251-.076.74-.031 1.155.183 1.707 1.394 2.685 3.32 2.685zm18.065-23.712c.457-.067.95-.175 1.237-.257.069-.022.462-.116 1.048-.342v.902l-3.69 4.106-3.691-4.107v-.788c1.697.59 3.457.725 5.096.486zm2.031 7.141l-2.232-1.64 3.425-3.81 1.278.88-2.47 4.57zm-1.296 2.397l-.2-.618.308-.635.408.3-.515.953zm-4.801-.95l.412-.302.308.634-.202.624-.518-.956zm1.456-3.087l-2.232 1.64-2.47-4.57 1.277-.88 3.425 3.81zm.289 1.806l.916-.673.915.673-.36.74h-1.112l-.36-.74zm.915 6.192l-1.074-1.982.6-1.844h.95l.598 1.84-1.074 1.986zM32.35 19.875c0 .846-.848 1.469-1.777 1.42v-2.84c.938-.05 1.777.582 1.777 1.42zm-3.115-5.385h-.001.001zm-15.764.638c3.197.462 7.865.278 11.953-3.216l.012.003c.785 1.414 2.024 2.307 3.511 2.538v2.88l-.928.547a2.112 2.112 0 00-1.737-.912h-3.72c-.878 0-1.632.538-1.951 1.3H19.09a2.117 2.117 0 00-1.951-1.3h-3.721c-.72 0-1.355.362-1.737.912l-.924-.545a2.373 2.373 0 012.714-2.207zm8.603 3.954c0-.264.223-.488.488-.488h3.72c.265 0 .488.224.488.488v1.62a1.28 1.28 0 01-1.279 1.278h-2.138a1.28 1.28 0 01-1.28-1.279v-1.619zm-4.447 0v1.62a1.28 1.28 0 01-1.28 1.278h-2.138a1.28 1.28 0 01-1.279-1.279v-1.619c0-.264.223-.488.488-.488h3.72c.265 0 .489.224.489.488zm-10.277.793c0-.847.848-1.47 1.777-1.42v2.84c-.937.05-1.777-.583-1.777-1.42zm5.596 7.812c-2.632-3.068-2.124-6.046-2.193-8.466l.551.325v1.155a2.909 2.909 0 002.905 2.906h2.139a2.909 2.909 0 002.905-2.906v-.806h1.195v.806a2.909 2.909 0 002.905 2.906h2.138a2.909 2.909 0 002.906-2.906v-1.155l.55-.325v2.543c0 4.836-3.827 9.038-9.097 9.096l-.11-.001c-1.405-.014-2.485-.375-2.376-.344-1.595-.442-3.117-1.356-4.418-2.828z" fill="#00093C"/></svg>